<svg xmlns="http://www.w3.org/2000/svg" xmlns:xlink="http://www.w3.org/1999/xlink" width="500" zoomAndPan="magnify" viewBox="0 0 375 143.999998" height="192" preserveAspectRatio="xMidYMid meet" version="1.2"><defs><clipPath id="e8d0f13542"><path d="M 83 37 L 130 37 L 130 92.761719 L 83 92.761719 Z M 83 37 "/></clipPath><clipPath id="84b3049ef1"><rect x="0" width="131" y="0" height="93"/></clipPath><clipPath id="964fe727d5"><rect x="0" width="249" y="0" height="74"/></clipPath></defs><g id="1d31828253"><g transform="matrix(1,0,0,1,139,51)"><g clip-path="url(#84b3049ef1)"><g style="fill:#1b1b1b;fill-opacity:1;"><g transform="translate(17.084764, 52.734068)"><path style="stroke:none" d="M 50.109375 -44.6875 C 50.410156 -44.539062 50.597656 -44.320312 50.671875 -44.03125 C 50.753906 -43.738281 50.707031 -43.441406 50.53125 -43.140625 C 50.488281 -43.046875 50.421875 -42.957031 50.328125 -42.875 C 50.242188 -42.789062 50.160156 -42.71875 50.078125 -42.65625 C 49.710938 -42.375 49.3125 -42.148438 48.875 -41.984375 C 48.445312 -41.816406 48.003906 -41.660156 47.546875 -41.515625 C 47.503906 -41.492188 47.457031 -41.476562 47.40625 -41.46875 C 47.363281 -41.457031 47.320312 -41.453125 47.28125 -41.453125 C 46.957031 -41.453125 46.742188 -41.59375 46.640625 -41.875 C 46.523438 -42.15625 46.585938 -42.378906 46.828125 -42.546875 C 46.898438 -42.585938 46.96875 -42.632812 47.03125 -42.6875 C 47.09375 -42.75 47.164062 -42.789062 47.25 -42.8125 C 47.425781 -42.875 47.613281 -42.941406 47.8125 -43.015625 C 48.019531 -43.097656 48.203125 -43.203125 48.359375 -43.328125 C 48.421875 -43.367188 48.523438 -43.410156 48.671875 -43.453125 C 48.828125 -43.503906 48.863281 -43.550781 48.78125 -43.59375 C 48.644531 -43.675781 48.507812 -43.71875 48.375 -43.71875 C 48.25 -43.71875 48.125 -43.726562 48 -43.75 C 46.269531 -43.96875 44.523438 -44.070312 42.765625 -44.0625 C 41.003906 -44.050781 39.234375 -44.023438 37.453125 -43.984375 C 36.941406 -43.960938 36.425781 -43.953125 35.90625 -43.953125 C 35.382812 -43.953125 34.863281 -43.9375 34.34375 -43.90625 C 33.21875 -43.882812 32.097656 -43.859375 30.984375 -43.828125 C 29.867188 -43.796875 28.765625 -43.75 27.671875 -43.6875 C 27.390625 -43.664062 27.070312 -43.707031 26.71875 -43.8125 C 26.375 -43.925781 26.140625 -43.863281 26.015625 -43.625 C 25.992188 -43.5625 25.957031 -43.5 25.90625 -43.4375 C 25.863281 -43.382812 25.820312 -43.335938 25.78125 -43.296875 C 24.914062 -41.992188 24.109375 -40.660156 23.359375 -39.296875 C 22.617188 -37.941406 21.828125 -36.601562 20.984375 -35.28125 C 18.171875 -30.914062 15.367188 -26.539062 12.578125 -22.15625 C 9.796875 -17.78125 7.019531 -13.390625 4.25 -8.984375 C 3.28125 -7.429688 2.332031 -5.851562 1.40625 -4.25 C 0.488281 -2.644531 -0.410156 -1.023438 -1.296875 0.609375 C -1.703125 1.367188 -2.09375 2.144531 -2.46875 2.9375 C -2.851562 3.726562 -3.238281 4.507812 -3.625 5.28125 C -3.675781 5.375 -3.742188 5.46875 -3.828125 5.5625 C -3.910156 5.65625 -3.929688 5.757812 -3.890625 5.875 C -3.847656 5.9375 -3.816406 6 -3.796875 6.0625 C -3.773438 6.125 -3.753906 6.179688 -3.734375 6.234375 C -3.617188 6.378906 -3.609375 6.53125 -3.703125 6.6875 C -3.828125 6.894531 -3.953125 7.09375 -4.078125 7.28125 C -4.210938 7.46875 -4.367188 7.644531 -4.546875 7.8125 C -4.628906 7.90625 -4.742188 7.972656 -4.890625 8.015625 C -5.066406 8.054688 -5.226562 8.019531 -5.375 7.90625 C -5.53125 7.800781 -5.609375 7.648438 -5.609375 7.453125 C -5.609375 7.265625 -5.578125 7.09375 -5.515625 6.9375 C -5.398438 6.695312 -5.304688 6.46875 -5.234375 6.25 C -5.160156 6.039062 -5.070312 5.828125 -4.96875 5.609375 C -4.425781 4.597656 -3.90625 3.578125 -3.40625 2.546875 C -2.90625 1.515625 -2.382812 0.492188 -1.84375 -0.515625 C -0.738281 -2.566406 0.410156 -4.601562 1.609375 -6.625 C 2.804688 -8.65625 4.019531 -10.664062 5.25 -12.65625 C 7.132812 -15.675781 9.007812 -18.707031 10.875 -21.75 C 12.75 -24.800781 14.601562 -27.84375 16.4375 -30.875 C 17.320312 -32.34375 18.222656 -33.796875 19.140625 -35.234375 C 20.066406 -36.671875 20.960938 -38.113281 21.828125 -39.5625 C 21.972656 -39.800781 22.128906 -40.050781 22.296875 -40.3125 C 22.460938 -40.570312 22.609375 -40.832031 22.734375 -41.09375 L 23.3125 -42.296875 C 23.382812 -42.421875 23.457031 -42.546875 23.53125 -42.671875 C 23.601562 -42.804688 23.671875 -42.941406 23.734375 -43.078125 C 23.785156 -43.140625 23.835938 -43.21875 23.890625 -43.3125 C 23.941406 -43.40625 23.9375 -43.453125 23.875 -43.453125 C 23.675781 -43.453125 23.484375 -43.457031 23.296875 -43.46875 C 23.117188 -43.476562 22.941406 -43.472656 22.765625 -43.453125 C 22.140625 -43.390625 21.515625 -43.34375 20.890625 -43.3125 C 20.265625 -43.28125 19.632812 -43.242188 19 -43.203125 C 18.226562 -43.179688 17.453125 -43.128906 16.671875 -43.046875 C 15.890625 -42.972656 15.109375 -42.914062 14.328125 -42.875 C 13.640625 -42.832031 12.941406 -42.785156 12.234375 -42.734375 C 11.535156 -42.679688 10.832031 -42.617188 10.125 -42.546875 C 9.40625 -42.484375 8.6875 -42.421875 7.96875 -42.359375 C 7.257812 -42.296875 6.5625 -42.238281 5.875 -42.1875 C 5.21875 -42.144531 4.570312 -42.097656 3.9375 -42.046875 C 3.300781 -41.992188 2.671875 -41.9375 2.046875 -41.875 C 1.441406 -41.800781 0.832031 -41.738281 0.21875 -41.6875 C -0.382812 -41.632812 -0.988281 -41.578125 -1.59375 -41.515625 C -2.300781 -41.429688 -3.003906 -41.351562 -3.703125 -41.28125 C -4.410156 -41.21875 -5.113281 -41.144531 -5.8125 -41.0625 C -6.476562 -40.976562 -7.144531 -40.894531 -7.8125 -40.8125 C -8.488281 -40.738281 -9.160156 -40.640625 -9.828125 -40.515625 C -9.910156 -40.484375 -9.988281 -40.457031 -10.0625 -40.4375 C -10.144531 -40.414062 -10.226562 -40.394531 -10.3125 -40.375 C -10.488281 -40.332031 -10.640625 -40.3125 -10.765625 -40.3125 C -11.222656 -40.3125 -11.671875 -40.273438 -12.109375 -40.203125 C -12.554688 -40.128906 -13.003906 -40.066406 -13.453125 -40.015625 C -13.710938 -39.992188 -13.96875 -39.972656 -14.21875 -39.953125 C -14.46875 -39.929688 -14.710938 -39.921875 -14.953125 -39.921875 C -15.054688 -39.921875 -15.160156 -39.929688 -15.265625 -39.953125 C -15.378906 -39.972656 -15.488281 -40.03125 -15.59375 -40.125 C -15.769531 -40.269531 -15.847656 -40.453125 -15.828125 -40.671875 C -15.804688 -40.890625 -15.6875 -41.039062 -15.46875 -41.125 L -15.140625 -41.21875 C -14.578125 -41.414062 -14 -41.546875 -13.40625 -41.609375 C -12.8125 -41.671875 -12.234375 -41.75 -11.671875 -41.84375 C -11.484375 -41.882812 -11.289062 -41.910156 -11.09375 -41.921875 C -10.894531 -41.929688 -10.703125 -41.914062 -10.515625 -41.875 C -10.316406 -41.851562 -10.117188 -41.847656 -9.921875 -41.859375 C -9.722656 -41.867188 -9.53125 -41.882812 -9.34375 -41.90625 C -8.238281 -42.007812 -7.128906 -42.140625 -6.015625 -42.296875 C -4.898438 -42.460938 -3.78125 -42.601562 -2.65625 -42.71875 C -0.125 -42.976562 2.378906 -43.203125 4.859375 -43.390625 C 6.140625 -43.503906 7.425781 -43.613281 8.71875 -43.71875 C 10.019531 -43.820312 11.304688 -43.921875 12.578125 -44.015625 C 13.722656 -44.097656 14.878906 -44.175781 16.046875 -44.25 C 17.222656 -44.332031 18.382812 -44.40625 19.53125 -44.46875 C 20.34375 -44.507812 21.15625 -44.566406 21.96875 -44.640625 C 22.78125 -44.710938 23.597656 -44.75 24.421875 -44.75 C 24.460938 -44.75 24.515625 -44.734375 24.578125 -44.703125 C 24.648438 -44.671875 24.695312 -44.703125 24.71875 -44.796875 C 24.84375 -45.117188 24.984375 -45.425781 25.140625 -45.71875 C 25.304688 -46.007812 25.476562 -46.304688 25.65625 -46.609375 C 25.71875 -46.710938 25.78125 -46.820312 25.84375 -46.9375 C 25.914062 -47.0625 25.984375 -47.164062 26.046875 -47.25 C 26.285156 -47.59375 26.578125 -47.691406 26.921875 -47.546875 C 27.265625 -47.390625 27.40625 -47.109375 27.34375 -46.703125 C 27.300781 -46.441406 27.234375 -46.203125 27.140625 -45.984375 C 27.097656 -45.878906 27.003906 -45.75 26.859375 -45.59375 C 26.722656 -45.445312 26.625 -45.3125 26.5625 -45.1875 C 26.5 -45.070312 26.53125 -44.984375 26.65625 -44.921875 C 26.769531 -44.878906 26.878906 -44.859375 26.984375 -44.859375 C 27.085938 -44.859375 27.1875 -44.859375 27.28125 -44.859375 C 28.03125 -44.859375 28.78125 -44.878906 29.53125 -44.921875 C 30.28125 -44.960938 31.019531 -44.992188 31.75 -45.015625 C 33.632812 -45.097656 35.507812 -45.148438 37.375 -45.171875 C 39.25 -45.203125 41.125 -45.191406 43 -45.140625 C 43.882812 -45.117188 44.769531 -45.101562 45.65625 -45.09375 C 46.550781 -45.082031 47.429688 -45.046875 48.296875 -44.984375 C 48.503906 -44.960938 48.707031 -44.945312 48.90625 -44.9375 C 49.101562 -44.925781 49.3125 -44.898438 49.53125 -44.859375 C 49.632812 -44.835938 49.734375 -44.8125 49.828125 -44.78125 C 49.929688 -44.757812 50.023438 -44.726562 50.109375 -44.6875 Z M 50.109375 -44.6875 "/></g></g><g style="fill:#1b1b1b;fill-opacity:1;"><g transform="translate(36.543548, 52.734068)"><path style="stroke:none" d="M -3.765625 -0.09375 C -4.003906 -0.09375 -4.195312 -0.160156 -4.34375 -0.296875 C -4.5 -0.441406 -4.578125 -0.625 -4.578125 -0.84375 C -4.578125 -0.945312 -4.539062 -1.066406 -4.46875 -1.203125 C -4.40625 -1.328125 -4.347656 -1.445312 -4.296875 -1.5625 C -4.242188 -1.6875 -4.1875 -1.800781 -4.125 -1.90625 C -3.582031 -2.84375 -3.019531 -3.765625 -2.4375 -4.671875 C -1.851562 -5.578125 -1.269531 -6.492188 -0.6875 -7.421875 C 1.113281 -10.253906 2.914062 -13.070312 4.71875 -15.875 C 6.519531 -18.675781 8.320312 -21.484375 10.125 -24.296875 C 11.851562 -26.992188 13.550781 -29.710938 15.21875 -32.453125 C 16.894531 -35.203125 18.625 -37.921875 20.40625 -40.609375 C 20.46875 -40.710938 20.53125 -40.8125 20.59375 -40.90625 C 20.65625 -41.007812 20.707031 -41.113281 20.75 -41.21875 C 20.84375 -41.4375 20.9375 -41.632812 21.03125 -41.8125 C 21.125 -42 21.269531 -42.171875 21.46875 -42.328125 C 21.53125 -42.367188 21.582031 -42.429688 21.625 -42.515625 C 21.675781 -42.609375 21.722656 -42.695312 21.765625 -42.78125 L 25.78125 -49.078125 C 25.894531 -49.265625 26.019531 -49.441406 26.15625 -49.609375 C 26.300781 -49.785156 26.4375 -49.960938 26.5625 -50.140625 C 26.757812 -50.398438 26.960938 -50.53125 27.171875 -50.53125 C 27.304688 -50.53125 27.457031 -50.476562 27.625 -50.375 C 27.90625 -50.21875 28.046875 -49.957031 28.046875 -49.59375 C 28.046875 -49.4375 28.015625 -49.296875 27.953125 -49.171875 C 27.828125 -48.910156 27.644531 -48.722656 27.40625 -48.609375 C 27.164062 -48.523438 26.972656 -48.394531 26.828125 -48.21875 C 26.691406 -48.050781 26.5625 -47.859375 26.4375 -47.640625 C 25.875 -46.710938 25.28125 -45.8125 24.65625 -44.9375 C 24.039062 -44.0625 23.421875 -43.179688 22.796875 -42.296875 L 22.640625 -42.0625 C 22.359375 -41.65625 22.0625 -41.257812 21.75 -40.875 C 21.4375 -40.5 21.148438 -40.097656 20.890625 -39.671875 C 19.265625 -37.023438 17.613281 -34.394531 15.9375 -31.78125 C 14.257812 -29.164062 12.59375 -26.539062 10.9375 -23.90625 C 9.226562 -21.21875 7.5 -18.519531 5.75 -15.8125 C 4.007812 -13.113281 2.273438 -10.414062 0.546875 -7.71875 C -0.0546875 -6.789062 -0.648438 -5.84375 -1.234375 -4.875 C -1.816406 -3.914062 -2.421875 -2.960938 -3.046875 -2.015625 C -3.109375 -1.921875 -3.171875 -1.816406 -3.234375 -1.703125 C -3.304688 -1.585938 -3.34375 -1.441406 -3.34375 -1.265625 C -3.164062 -1.347656 -3.003906 -1.4375 -2.859375 -1.53125 C -2.722656 -1.632812 -2.601562 -1.726562 -2.5 -1.8125 C -1.695312 -2.53125 -0.894531 -3.265625 -0.09375 -4.015625 C 0.675781 -4.773438 1.457031 -5.507812 2.25 -6.21875 C 3.039062 -6.9375 3.847656 -7.628906 4.671875 -8.296875 C 4.929688 -8.515625 5.1875 -8.71875 5.4375 -8.90625 C 5.6875 -9.101562 5.953125 -9.289062 6.234375 -9.46875 C 6.359375 -9.550781 6.492188 -9.625 6.640625 -9.6875 C 6.796875 -9.757812 6.953125 -9.796875 7.109375 -9.796875 C 7.617188 -9.796875 7.875 -9.554688 7.875 -9.078125 L 7.875 -8.828125 C 7.875 -8.691406 7.867188 -8.554688 7.859375 -8.421875 C 7.847656 -8.296875 7.832031 -8.171875 7.8125 -8.046875 C 7.769531 -7.703125 7.695312 -7.347656 7.59375 -6.984375 C 7.5 -6.628906 7.410156 -6.269531 7.328125 -5.90625 C 7.148438 -5.164062 7.0625 -4.472656 7.0625 -3.828125 C 7.0625 -3.609375 7.078125 -3.394531 7.109375 -3.1875 C 7.148438 -2.988281 7.171875 -2.78125 7.171875 -2.5625 C 7.171875 -2.476562 7.179688 -2.414062 7.203125 -2.375 C 7.328125 -2.113281 7.453125 -1.914062 7.578125 -1.78125 C 7.710938 -1.65625 7.898438 -1.59375 8.140625 -1.59375 C 8.441406 -1.59375 8.722656 -1.644531 8.984375 -1.75 C 9.242188 -1.851562 9.484375 -1.984375 9.703125 -2.140625 C 10.285156 -2.503906 10.859375 -2.894531 11.421875 -3.3125 C 11.984375 -3.738281 12.488281 -4.222656 12.9375 -4.765625 C 13.28125 -5.148438 13.613281 -5.539062 13.9375 -5.9375 C 14.269531 -6.34375 14.585938 -6.753906 14.890625 -7.171875 C 14.972656 -7.273438 15.046875 -7.382812 15.109375 -7.5 C 15.171875 -7.625 15.238281 -7.738281 15.3125 -7.84375 C 15.4375 -8.039062 15.597656 -8.140625 15.796875 -8.140625 C 16.117188 -8.140625 16.28125 -7.988281 16.28125 -7.6875 C 16.28125 -7.625 16.269531 -7.554688 16.25 -7.484375 C 16.226562 -7.421875 16.207031 -7.359375 16.1875 -7.296875 C 16.164062 -7.234375 16.109375 -7.132812 16.015625 -7 C 14.960938 -5.425781 13.722656 -4.035156 12.296875 -2.828125 C 11.972656 -2.546875 11.644531 -2.289062 11.3125 -2.0625 C 10.988281 -1.832031 10.65625 -1.597656 10.3125 -1.359375 C 10.09375 -1.210938 9.851562 -1.070312 9.59375 -0.9375 C 9.332031 -0.8125 9.066406 -0.726562 8.796875 -0.6875 C 8.703125 -0.664062 8.597656 -0.644531 8.484375 -0.625 C 8.378906 -0.613281 8.273438 -0.609375 8.171875 -0.609375 C 7.222656 -0.609375 6.609375 -1.039062 6.328125 -1.90625 C 6.171875 -2.382812 6.09375 -2.914062 6.09375 -3.5 C 6.09375 -4.195312 6.171875 -4.875 6.328125 -5.53125 C 6.492188 -6.1875 6.644531 -6.851562 6.78125 -7.53125 L 6.9375 -8.375 C 6.957031 -8.414062 6.960938 -8.460938 6.953125 -8.515625 C 6.941406 -8.566406 6.9375 -8.632812 6.9375 -8.71875 C 6.789062 -8.675781 6.660156 -8.617188 6.546875 -8.546875 C 6.441406 -8.472656 6.335938 -8.390625 6.234375 -8.296875 C 5.691406 -7.828125 5.144531 -7.363281 4.59375 -6.90625 C 4.039062 -6.457031 3.492188 -5.984375 2.953125 -5.484375 C 2.285156 -4.859375 1.601562 -4.226562 0.90625 -3.59375 C 0.21875 -2.96875 -0.472656 -2.34375 -1.171875 -1.71875 C -1.378906 -1.519531 -1.597656 -1.332031 -1.828125 -1.15625 C -2.054688 -0.988281 -2.28125 -0.820312 -2.5 -0.65625 C -2.601562 -0.5625 -2.71875 -0.488281 -2.84375 -0.4375 C -2.976562 -0.382812 -3.113281 -0.316406 -3.25 -0.234375 C -3.394531 -0.140625 -3.566406 -0.09375 -3.765625 -0.09375 Z M -3.765625 -0.09375 "/></g></g><g style="fill:#1b1b1b;fill-opacity:1;"><g transform="translate(52.370026, 52.734068)"><path style="stroke:none" d="M 2.328125 -1.875 C 1.835938 -1.875 1.34375 -1.941406 0.84375 -2.078125 C 0.125 -2.273438 -0.429688 -2.625 -0.828125 -3.125 C -1.222656 -3.632812 -1.421875 -4.25 -1.421875 -4.96875 C -1.421875 -5.394531 -1.351562 -5.820312 -1.21875 -6.25 C -1.09375 -6.6875 -0.9375 -7.097656 -0.75 -7.484375 C -0.0507812 -8.828125 0.890625 -9.953125 2.078125 -10.859375 C 2.203125 -10.972656 2.328125 -11.066406 2.453125 -11.140625 C 2.585938 -11.210938 2.734375 -11.269531 2.890625 -11.3125 C 3.015625 -11.363281 3.117188 -11.390625 3.203125 -11.390625 C 3.660156 -11.390625 3.890625 -11.140625 3.890625 -10.640625 C 3.890625 -10.316406 3.800781 -10.003906 3.625 -9.703125 C 2.832031 -8.253906 1.6875 -7.179688 0.1875 -6.484375 L -0.234375 -6.296875 C -0.378906 -5.898438 -0.453125 -5.488281 -0.453125 -5.0625 C -0.453125 -4.15625 -0.0703125 -3.515625 0.6875 -3.140625 C 0.851562 -3.054688 1.023438 -3 1.203125 -2.96875 C 1.390625 -2.9375 1.570312 -2.910156 1.75 -2.890625 C 2.3125 -2.847656 2.859375 -2.867188 3.390625 -2.953125 C 3.921875 -3.035156 4.4375 -3.175781 4.9375 -3.375 C 6.226562 -3.875 7.445312 -4.476562 8.59375 -5.1875 C 9.738281 -5.90625 10.8125 -6.726562 11.8125 -7.65625 C 11.875 -7.738281 11.929688 -7.816406 11.984375 -7.890625 C 12.035156 -7.972656 12.101562 -8.046875 12.1875 -8.109375 C 12.300781 -8.234375 12.429688 -8.296875 12.578125 -8.296875 C 12.691406 -8.296875 12.789062 -8.265625 12.875 -8.203125 C 13.03125 -8.078125 13.109375 -7.9375 13.109375 -7.78125 C 13.109375 -7.695312 13.070312 -7.597656 13 -7.484375 C 12.832031 -7.234375 12.660156 -7.039062 12.484375 -6.90625 C 11.515625 -6.101562 10.507812 -5.347656 9.46875 -4.640625 C 8.425781 -3.941406 7.320312 -3.328125 6.15625 -2.796875 C 5.8125 -2.640625 5.453125 -2.492188 5.078125 -2.359375 C 4.703125 -2.234375 4.316406 -2.128906 3.921875 -2.046875 C 3.660156 -2.003906 3.394531 -1.960938 3.125 -1.921875 C 2.851562 -1.890625 2.585938 -1.875 2.328125 -1.875 Z M 0.75 -8.015625 C 1.050781 -8.140625 1.382812 -8.394531 1.75 -8.78125 C 2.113281 -9.175781 2.382812 -9.554688 2.5625 -9.921875 C 2.28125 -9.773438 1.945312 -9.492188 1.5625 -9.078125 C 1.1875 -8.671875 0.914062 -8.316406 0.75 -8.015625 Z M 0.75 -8.015625 "/></g></g><g style="fill:#1b1b1b;fill-opacity:1;"><g transform="translate(65.083098, 52.734068)"><path style="stroke:none" d="M 14.984375 -12.09375 C 15.046875 -11.6875 14.992188 -11.300781 14.828125 -10.9375 C 14.691406 -10.695312 14.503906 -10.566406 14.265625 -10.546875 C 14.117188 -10.546875 14 -10.601562 13.90625 -10.71875 C 13.820312 -10.832031 13.789062 -10.96875 13.8125 -11.125 C 13.832031 -11.164062 13.851562 -11.207031 13.875 -11.25 C 13.894531 -11.289062 13.921875 -11.335938 13.953125 -11.390625 C 13.972656 -11.453125 13.988281 -11.507812 14 -11.5625 C 14.007812 -11.613281 14.015625 -11.679688 14.015625 -11.765625 C 14.035156 -11.960938 14.007812 -12.113281 13.9375 -12.21875 C 13.875 -12.332031 13.722656 -12.410156 13.484375 -12.453125 C 13.296875 -12.554688 13.070312 -12.585938 12.8125 -12.546875 C 12.394531 -12.546875 11.992188 -12.507812 11.609375 -12.4375 C 11.222656 -12.363281 10.820312 -12.257812 10.40625 -12.125 C 9.820312 -11.9375 9.253906 -11.710938 8.703125 -11.453125 C 8.148438 -11.191406 7.617188 -10.910156 7.109375 -10.609375 C 5.003906 -9.398438 3.046875 -8.023438 1.234375 -6.484375 C -0.578125 -4.953125 -2.210938 -3.203125 -3.671875 -1.234375 L -4.125 -0.6875 C -4.144531 -0.613281 -4.1875 -0.5625 -4.25 -0.53125 C -4.3125 -0.5 -4.375 -0.460938 -4.4375 -0.421875 C -4.59375 -0.378906 -4.726562 -0.394531 -4.84375 -0.46875 C -4.96875 -0.539062 -5.039062 -0.65625 -5.0625 -0.8125 C -5.0625 -0.9375 -5.019531 -1.085938 -4.9375 -1.265625 C -4.863281 -1.367188 -4.789062 -1.484375 -4.71875 -1.609375 C -4.644531 -1.742188 -4.5625 -1.859375 -4.46875 -1.953125 C -3.695312 -3.222656 -2.910156 -4.484375 -2.109375 -5.734375 C -1.304688 -6.992188 -0.503906 -8.25 0.296875 -9.5 C 0.335938 -9.539062 0.375 -9.597656 0.40625 -9.671875 C 0.4375 -9.753906 0.472656 -9.828125 0.515625 -9.890625 C 0.628906 -10.085938 0.738281 -10.285156 0.84375 -10.484375 C 0.945312 -10.691406 1.066406 -10.882812 1.203125 -11.0625 C 1.441406 -11.40625 1.679688 -11.734375 1.921875 -12.046875 C 2.171875 -12.359375 2.40625 -12.664062 2.625 -12.96875 C 2.664062 -13.039062 2.710938 -13.109375 2.765625 -13.171875 C 2.828125 -13.234375 2.890625 -13.285156 2.953125 -13.328125 C 3.148438 -13.503906 3.363281 -13.523438 3.59375 -13.390625 C 3.8125 -13.222656 3.890625 -13.019531 3.828125 -12.78125 C 3.804688 -12.695312 3.773438 -12.597656 3.734375 -12.484375 C 3.691406 -12.378906 3.632812 -12.269531 3.5625 -12.15625 C 3.300781 -11.8125 3.039062 -11.441406 2.78125 -11.046875 C 2.53125 -10.660156 2.273438 -10.285156 2.015625 -9.921875 C 1.859375 -9.703125 1.757812 -9.519531 1.71875 -9.375 C 1.695312 -9.332031 1.675781 -9.285156 1.65625 -9.234375 C 1.632812 -9.191406 1.613281 -9.148438 1.59375 -9.109375 C 0.914062 -8.242188 0.265625 -7.367188 -0.359375 -6.484375 C -0.378906 -6.484375 -0.390625 -6.472656 -0.390625 -6.453125 C -0.390625 -6.429688 -0.398438 -6.410156 -0.421875 -6.390625 C -0.378906 -6.347656 -0.359375 -6.328125 -0.359375 -6.328125 C -0.273438 -6.390625 -0.195312 -6.445312 -0.125 -6.5 C -0.0625 -6.550781 -0.0078125 -6.613281 0.03125 -6.6875 C 1.132812 -7.632812 2.269531 -8.53125 3.4375 -9.375 C 4.601562 -10.21875 5.835938 -10.972656 7.140625 -11.640625 C 7.703125 -11.941406 8.269531 -12.226562 8.84375 -12.5 C 9.414062 -12.769531 10.023438 -12.992188 10.671875 -13.171875 C 11.054688 -13.273438 11.445312 -13.359375 11.84375 -13.421875 C 12.25 -13.492188 12.660156 -13.515625 13.078125 -13.484375 C 13.242188 -13.484375 13.394531 -13.460938 13.53125 -13.421875 C 13.675781 -13.378906 13.828125 -13.335938 13.984375 -13.296875 C 14.546875 -13.097656 14.878906 -12.695312 14.984375 -12.09375 Z M 14.984375 -12.09375 "/></g></g><g style="fill:#1b1b1b;fill-opacity:1;"><g transform="translate(80.423105, 52.734068)"><path style="stroke:none" d="M 8.40625 -2.859375 C 7.84375 -2.859375 7.363281 -2.984375 6.96875 -3.234375 C 6.582031 -3.492188 6.289062 -3.84375 6.09375 -4.28125 C 5.96875 -4.582031 5.863281 -4.878906 5.78125 -5.171875 C 5.707031 -5.460938 5.671875 -5.757812 5.671875 -6.0625 L 5.671875 -7.296875 C 5.546875 -7.421875 5.445312 -7.523438 5.375 -7.609375 C 5.3125 -7.703125 5.28125 -7.800781 5.28125 -7.90625 C 5.28125 -7.957031 5.285156 -8.015625 5.296875 -8.078125 C 5.304688 -8.140625 5.320312 -8.210938 5.34375 -8.296875 C 5.394531 -8.472656 5.453125 -8.664062 5.515625 -8.875 C 5.578125 -9.09375 5.640625 -9.320312 5.703125 -9.5625 C 5.617188 -9.476562 5.550781 -9.414062 5.5 -9.375 C 5.445312 -9.332031 5.394531 -9.289062 5.34375 -9.25 C 4.957031 -8.851562 4.597656 -8.441406 4.265625 -8.015625 C 3.929688 -7.597656 3.59375 -7.1875 3.25 -6.78125 C 2.988281 -6.476562 2.71875 -6.171875 2.4375 -5.859375 C 2.15625 -5.546875 1.863281 -5.238281 1.5625 -4.9375 C 1.34375 -4.71875 1.117188 -4.523438 0.890625 -4.359375 C 0.660156 -4.203125 0.425781 -4.023438 0.1875 -3.828125 C 0.0820312 -3.742188 -0.0390625 -3.660156 -0.1875 -3.578125 C -0.34375 -3.503906 -0.507812 -3.445312 -0.6875 -3.40625 C -0.726562 -3.382812 -0.78125 -3.375 -0.84375 -3.375 C -0.90625 -3.375 -0.957031 -3.375 -1 -3.375 C -1.257812 -3.375 -1.46875 -3.46875 -1.625 -3.65625 C -1.789062 -3.851562 -1.875 -4.09375 -1.875 -4.375 C -1.875 -4.550781 -1.851562 -4.726562 -1.8125 -4.90625 C -1.769531 -5.09375 -1.71875 -5.265625 -1.65625 -5.421875 C -1.414062 -6.003906 -1.140625 -6.582031 -0.828125 -7.15625 C -0.515625 -7.726562 -0.1875 -8.273438 0.15625 -8.796875 C 0.507812 -9.285156 0.890625 -9.738281 1.296875 -10.15625 C 1.703125 -10.582031 2.125 -10.976562 2.5625 -11.34375 C 2.800781 -11.539062 3.050781 -11.722656 3.3125 -11.890625 C 3.570312 -12.066406 3.84375 -12.222656 4.125 -12.359375 C 4.269531 -12.421875 4.421875 -12.476562 4.578125 -12.53125 C 4.742188 -12.582031 4.90625 -12.625 5.0625 -12.65625 C 5.144531 -12.675781 5.21875 -12.691406 5.28125 -12.703125 C 5.351562 -12.710938 5.421875 -12.71875 5.484375 -12.71875 C 5.671875 -12.71875 5.851562 -12.691406 6.03125 -12.640625 C 6.207031 -12.597656 6.367188 -12.503906 6.515625 -12.359375 L 6.65625 -12.234375 L 6.71875 -12.1875 L 7.109375 -12.390625 C 7.148438 -12.410156 7.203125 -12.421875 7.265625 -12.421875 C 7.585938 -12.421875 7.75 -12.257812 7.75 -11.9375 C 7.75 -11.851562 7.738281 -11.753906 7.71875 -11.640625 C 7.695312 -11.535156 7.664062 -11.425781 7.625 -11.3125 C 7.488281 -10.945312 7.375 -10.570312 7.28125 -10.1875 C 7.1875 -9.8125 7.082031 -9.429688 6.96875 -9.046875 C 6.863281 -8.566406 6.789062 -8.078125 6.75 -7.578125 C 6.707031 -7.085938 6.6875 -6.59375 6.6875 -6.09375 C 6.6875 -5.644531 6.757812 -5.222656 6.90625 -4.828125 C 7.1875 -4.160156 7.695312 -3.828125 8.4375 -3.828125 C 8.675781 -3.828125 8.898438 -3.84375 9.109375 -3.875 C 9.328125 -3.90625 9.546875 -3.976562 9.765625 -4.09375 C 9.929688 -4.195312 10.113281 -4.289062 10.3125 -4.375 C 10.507812 -4.46875 10.703125 -4.566406 10.890625 -4.671875 C 11.523438 -5.035156 12.113281 -5.4375 12.65625 -5.875 C 13.207031 -6.320312 13.742188 -6.804688 14.265625 -7.328125 C 14.359375 -7.410156 14.4375 -7.488281 14.5 -7.5625 C 14.5625 -7.644531 14.570312 -7.757812 14.53125 -7.90625 C 14.507812 -7.90625 14.5 -7.929688 14.5 -7.984375 C 14.5 -8.046875 14.535156 -8.09375 14.609375 -8.125 C 14.679688 -8.15625 14.742188 -8.191406 14.796875 -8.234375 C 14.835938 -8.273438 14.910156 -8.296875 15.015625 -8.296875 C 15.171875 -8.296875 15.304688 -8.242188 15.421875 -8.140625 C 15.535156 -8.035156 15.59375 -7.90625 15.59375 -7.75 C 15.59375 -7.550781 15.539062 -7.378906 15.4375 -7.234375 C 15.375 -7.148438 15.304688 -7.066406 15.234375 -6.984375 C 15.171875 -6.910156 15.109375 -6.84375 15.046875 -6.78125 C 14.503906 -6.238281 13.953125 -5.75 13.390625 -5.3125 C 12.828125 -4.882812 12.234375 -4.453125 11.609375 -4.015625 C 11.242188 -3.753906 10.851562 -3.515625 10.4375 -3.296875 C 10.03125 -3.085938 9.597656 -2.960938 9.140625 -2.921875 C 9.015625 -2.898438 8.890625 -2.882812 8.765625 -2.875 C 8.648438 -2.863281 8.53125 -2.859375 8.40625 -2.859375 Z M -0.875 -4.34375 C -0.8125 -4.34375 -0.738281 -4.363281 -0.65625 -4.40625 C -0.5 -4.476562 -0.351562 -4.5625 -0.21875 -4.65625 C -0.09375 -4.75 0.03125 -4.84375 0.15625 -4.9375 C 0.457031 -5.144531 0.722656 -5.367188 0.953125 -5.609375 C 1.179688 -5.847656 1.414062 -6.109375 1.65625 -6.390625 C 2.34375 -7.191406 3.09375 -7.957031 3.90625 -8.6875 C 4.71875 -9.425781 5.363281 -10.269531 5.84375 -11.21875 C 5.863281 -11.257812 5.882812 -11.300781 5.90625 -11.34375 C 5.925781 -11.394531 5.925781 -11.453125 5.90625 -11.515625 C 5.863281 -11.640625 5.765625 -11.703125 5.609375 -11.703125 C 5.503906 -11.703125 5.382812 -11.6875 5.25 -11.65625 C 5.125 -11.625 5.003906 -11.585938 4.890625 -11.546875 C 4.742188 -11.503906 4.59375 -11.441406 4.4375 -11.359375 C 4.289062 -11.285156 4.128906 -11.195312 3.953125 -11.09375 C 3.710938 -10.9375 3.476562 -10.765625 3.25 -10.578125 C 3.03125 -10.398438 2.8125 -10.203125 2.59375 -9.984375 C 2.03125 -9.421875 1.503906 -8.835938 1.015625 -8.234375 C 0.535156 -7.628906 0.109375 -6.972656 -0.265625 -6.265625 C -0.367188 -6.046875 -0.46875 -5.820312 -0.5625 -5.59375 C -0.664062 -5.363281 -0.757812 -5.128906 -0.84375 -4.890625 C -0.882812 -4.765625 -0.90625 -4.660156 -0.90625 -4.578125 C -0.90625 -4.484375 -0.894531 -4.40625 -0.875 -4.34375 Z M -0.875 -4.34375 "/></g></g><g style="fill:#1b1b1b;fill-opacity:1;"><g transform="translate(95.600956, 52.734068)"><path style="stroke:none" d="M -18.9375 31.359375 C -19.03125 31.359375 -19.109375 31.351562 -19.171875 31.34375 C -19.234375 31.332031 -19.304688 31.316406 -19.390625 31.296875 C -19.546875 31.234375 -19.660156 31.148438 -19.734375 31.046875 C -19.804688 30.953125 -19.878906 30.832031 -19.953125 30.6875 C -20.035156 30.488281 -20.078125 30.257812 -20.078125 30 C -20.078125 29.9375 -20.078125 29.863281 -20.078125 29.78125 C -20.078125 29.707031 -20.066406 29.640625 -20.046875 29.578125 C -19.867188 28.816406 -19.671875 28.113281 -19.453125 27.46875 C -19.128906 26.519531 -18.757812 25.582031 -18.34375 24.65625 C -17.9375 23.738281 -17.519531 22.828125 -17.09375 21.921875 C -16.113281 19.910156 -15.101562 17.921875 -14.0625 15.953125 C -13.03125 13.984375 -11.960938 12.03125 -10.859375 10.09375 C -9.523438 7.726562 -8.175781 5.390625 -6.8125 3.078125 C -5.445312 0.765625 -4.109375 -1.566406 -2.796875 -3.921875 C -2.421875 -4.546875 -2.046875 -5.160156 -1.671875 -5.765625 C -1.296875 -6.378906 -0.941406 -7.007812 -0.609375 -7.65625 C -0.546875 -7.78125 -0.476562 -7.910156 -0.40625 -8.046875 C -0.332031 -8.191406 -0.316406 -8.375 -0.359375 -8.59375 C -0.421875 -8.632812 -0.484375 -8.664062 -0.546875 -8.6875 C -0.617188 -8.707031 -0.675781 -8.726562 -0.71875 -8.75 C -1 -8.945312 -1.09375 -9.207031 -1 -9.53125 C -0.957031 -9.6875 -0.890625 -9.804688 -0.796875 -9.890625 C -0.703125 -9.972656 -0.609375 -10.0625 -0.515625 -10.15625 C -0.328125 -10.320312 -0.132812 -10.472656 0.0625 -10.609375 C 0.257812 -10.753906 0.46875 -10.875 0.6875 -10.96875 C 1.050781 -11.113281 1.359375 -11.3125 1.609375 -11.5625 C 1.859375 -11.8125 2.066406 -12.097656 2.234375 -12.421875 C 2.535156 -12.984375 2.859375 -13.523438 3.203125 -14.046875 C 3.554688 -14.566406 3.894531 -15.09375 4.21875 -15.625 C 4.257812 -15.71875 4.3125 -15.800781 4.375 -15.875 C 4.4375 -15.945312 4.503906 -16.03125 4.578125 -16.125 C 4.742188 -16.25 4.894531 -16.3125 5.03125 -16.3125 C 5.113281 -16.3125 5.195312 -16.289062 5.28125 -16.25 C 5.5625 -16.09375 5.640625 -15.851562 5.515625 -15.53125 C 5.492188 -15.445312 5.457031 -15.359375 5.40625 -15.265625 C 5.363281 -15.179688 5.320312 -15.097656 5.28125 -15.015625 L 4.125 -12.90625 L 3.890625 -12.453125 C 3.992188 -12.472656 4.078125 -12.484375 4.140625 -12.484375 C 4.210938 -12.484375 4.28125 -12.492188 4.34375 -12.515625 C 5.039062 -12.691406 5.71875 -12.863281 6.375 -13.03125 C 7.03125 -13.207031 7.707031 -13.347656 8.40625 -13.453125 C 8.707031 -13.503906 9.003906 -13.550781 9.296875 -13.59375 C 9.585938 -13.632812 9.875 -13.65625 10.15625 -13.65625 C 10.320312 -13.65625 10.492188 -13.644531 10.671875 -13.625 C 10.847656 -13.601562 11.007812 -13.570312 11.15625 -13.53125 C 11.332031 -13.5 11.492188 -13.457031 11.640625 -13.40625 C 11.796875 -13.351562 11.945312 -13.285156 12.09375 -13.203125 C 12.46875 -13.003906 12.742188 -12.734375 12.921875 -12.390625 C 13.109375 -12.046875 13.144531 -11.664062 13.03125 -11.25 C 12.945312 -10.84375 12.796875 -10.429688 12.578125 -10.015625 C 12.390625 -9.628906 12.175781 -9.265625 11.9375 -8.921875 C 11.695312 -8.578125 11.4375 -8.253906 11.15625 -7.953125 C 10.695312 -7.453125 10.222656 -6.96875 9.734375 -6.5 C 9.253906 -6.039062 8.765625 -5.582031 8.265625 -5.125 C 7.140625 -4.125 5.972656 -3.175781 4.765625 -2.28125 C 3.554688 -1.382812 2.320312 -0.523438 1.0625 0.296875 C 0.269531 0.835938 -0.539062 1.359375 -1.375 1.859375 C -2.207031 2.367188 -3.046875 2.875 -3.890625 3.375 C -4.046875 3.457031 -4.207031 3.546875 -4.375 3.640625 C -4.550781 3.742188 -4.722656 3.828125 -4.890625 3.890625 C -5.046875 3.953125 -5.234375 3.984375 -5.453125 3.984375 L -5.515625 3.984375 C -5.773438 3.984375 -5.90625 3.878906 -5.90625 3.671875 L -5.90625 3.5625 C -5.90625 3.375 -5.816406 3.242188 -5.640625 3.171875 C -4.429688 2.679688 -3.296875 2.070312 -2.234375 1.34375 C -1.179688 0.625 -0.125 -0.0820312 0.9375 -0.78125 C 2.019531 -1.46875 3.066406 -2.203125 4.078125 -2.984375 C 5.097656 -3.765625 6.09375 -4.566406 7.0625 -5.390625 C 7.78125 -6.015625 8.460938 -6.65625 9.109375 -7.3125 C 9.765625 -7.96875 10.359375 -8.664062 10.890625 -9.40625 C 11.066406 -9.644531 11.222656 -9.890625 11.359375 -10.140625 C 11.503906 -10.390625 11.65625 -10.640625 11.8125 -10.890625 C 11.957031 -11.148438 12.03125 -11.421875 12.03125 -11.703125 L 12.03125 -11.765625 C 12.03125 -12.003906 11.910156 -12.179688 11.671875 -12.296875 C 11.453125 -12.398438 11.226562 -12.460938 11 -12.484375 C 10.863281 -12.503906 10.734375 -12.519531 10.609375 -12.53125 C 10.492188 -12.539062 10.375 -12.546875 10.25 -12.546875 C 9.832031 -12.546875 9.410156 -12.515625 8.984375 -12.453125 C 8.035156 -12.304688 7.085938 -12.117188 6.140625 -11.890625 C 5.203125 -11.660156 4.28125 -11.363281 3.375 -11 C 3.15625 -10.90625 2.957031 -10.800781 2.78125 -10.6875 C 2.613281 -10.570312 2.460938 -10.414062 2.328125 -10.21875 C 2.203125 -10 2.050781 -9.796875 1.875 -9.609375 C 1.707031 -9.429688 1.566406 -9.222656 1.453125 -8.984375 C 1.285156 -8.640625 1.097656 -8.300781 0.890625 -7.96875 C 0.679688 -7.644531 0.472656 -7.320312 0.265625 -7 C 0.046875 -6.675781 -0.164062 -6.351562 -0.375 -6.03125 C -0.582031 -5.707031 -0.78125 -5.382812 -0.96875 -5.0625 C -1.1875 -4.71875 -1.394531 -4.382812 -1.59375 -4.0625 C -1.800781 -3.75 -2.003906 -3.421875 -2.203125 -3.078125 C -2.398438 -2.734375 -2.597656 -2.398438 -2.796875 -2.078125 C -3.003906 -1.753906 -3.207031 -1.429688 -3.40625 -1.109375 C -5.289062 2.023438 -7.144531 5.171875 -8.96875 8.328125 C -10.789062 11.492188 -12.523438 14.695312 -14.171875 17.9375 C -14.835938 19.28125 -15.503906 20.617188 -16.171875 21.953125 C -16.847656 23.296875 -17.46875 24.671875 -18.03125 26.078125 C -18.25 26.597656 -18.453125 27.109375 -18.640625 27.609375 C -18.835938 28.117188 -18.992188 28.65625 -19.109375 29.21875 C -19.128906 29.375 -19.144531 29.53125 -19.15625 29.6875 C -19.164062 29.851562 -19.171875 30.019531 -19.171875 30.1875 C -19.171875 30.425781 -19.050781 30.523438 -18.8125 30.484375 L -18.234375 30.390625 C -18.140625 30.390625 -18.070312 30.414062 -18.03125 30.46875 C -17.988281 30.519531 -17.9375 30.582031 -17.875 30.65625 C -17.851562 30.675781 -17.84375 30.707031 -17.84375 30.75 C -17.84375 30.875 -17.894531 30.96875 -18 31.03125 C -18.320312 31.25 -18.632812 31.359375 -18.9375 31.359375 Z M -18.9375 31.359375 "/></g></g><g clip-rule="nonzero" clip-path="url(#e8d0f13542)"><g style="fill:#1b1b1b;fill-opacity:1;"><g transform="translate(110.292338, 52.734068)"><path style="stroke:none" d="M -25.078125 39.46875 C -26.148438 39.46875 -26.816406 38.914062 -27.078125 37.8125 C -27.210938 37.25 -27.242188 36.6875 -27.171875 36.125 C -27.066406 35.375 -26.910156 34.632812 -26.703125 33.90625 C -26.503906 33.1875 -26.265625 32.476562 -25.984375 31.78125 C -25.179688 29.90625 -24.207031 28.078125 -23.0625 26.296875 C -22.195312 24.960938 -21.285156 23.675781 -20.328125 22.4375 C -19.378906 21.207031 -18.382812 20 -17.34375 18.8125 C -15.488281 16.6875 -13.582031 14.644531 -11.625 12.6875 C -9.664062 10.738281 -7.640625 8.84375 -5.546875 7 C -3.878906 5.550781 -2.164062 4.160156 -0.40625 2.828125 C 1.351562 1.503906 3.15625 0.25 5 -0.9375 C 5.40625 -1.195312 5.726562 -1.566406 5.96875 -2.046875 C 6.832031 -3.753906 7.703125 -5.453125 8.578125 -7.140625 C 9.453125 -8.828125 10.257812 -10.546875 11 -12.296875 L 11.1875 -12.75 C 11.144531 -12.8125 11.113281 -12.828125 11.09375 -12.796875 C 11.070312 -12.765625 11.039062 -12.738281 11 -12.71875 C 10.957031 -12.695312 10.898438 -12.648438 10.828125 -12.578125 C 9.773438 -11.523438 8.660156 -10.535156 7.484375 -9.609375 C 6.316406 -8.691406 5.148438 -7.757812 3.984375 -6.8125 C 3.492188 -6.394531 2.988281 -5.992188 2.46875 -5.609375 C 1.945312 -5.222656 1.425781 -4.820312 0.90625 -4.40625 C 0.625 -4.195312 0.34375 -4 0.0625 -3.8125 C -0.21875 -3.625 -0.507812 -3.457031 -0.8125 -3.3125 C -0.9375 -3.238281 -1.0625 -3.179688 -1.1875 -3.140625 C -1.320312 -3.097656 -1.476562 -3.078125 -1.65625 -3.078125 C -2.238281 -3.078125 -2.53125 -3.359375 -2.53125 -3.921875 C -2.53125 -4.054688 -2.507812 -4.195312 -2.46875 -4.34375 C -2.425781 -4.5 -2.378906 -4.640625 -2.328125 -4.765625 C -2.242188 -4.960938 -2.160156 -5.15625 -2.078125 -5.34375 C -1.992188 -5.539062 -1.90625 -5.726562 -1.8125 -5.90625 C -1.1875 -7.050781 -0.492188 -8.128906 0.265625 -9.140625 L 2.796875 -12.546875 C 2.960938 -12.785156 3.148438 -13.023438 3.359375 -13.265625 C 3.566406 -13.503906 3.785156 -13.695312 4.015625 -13.84375 C 4.128906 -13.914062 4.238281 -13.976562 4.34375 -14.03125 C 4.457031 -14.082031 4.578125 -14.109375 4.703125 -14.109375 C 4.898438 -14.109375 5.066406 -14.046875 5.203125 -13.921875 C 5.347656 -13.804688 5.421875 -13.660156 5.421875 -13.484375 L 5.421875 -13.328125 C 5.421875 -13.066406 5.375 -12.84375 5.28125 -12.65625 C 4.914062 -11.757812 4.421875 -10.96875 3.796875 -10.28125 C 3.554688 -10.019531 3.335938 -9.890625 3.140625 -9.890625 C 3.078125 -9.890625 3.007812 -9.894531 2.9375 -9.90625 C 2.863281 -9.914062 2.769531 -9.929688 2.65625 -9.953125 C 1.945312 -9.066406 1.226562 -8.171875 0.5 -7.265625 C -0.21875 -6.359375 -0.847656 -5.351562 -1.390625 -4.25 L -1.03125 -4.375 C -0.800781 -4.53125 -0.5625 -4.679688 -0.3125 -4.828125 C -0.0625 -4.984375 0.171875 -5.144531 0.390625 -5.3125 C 1.148438 -5.894531 1.898438 -6.476562 2.640625 -7.0625 C 3.390625 -7.65625 4.128906 -8.253906 4.859375 -8.859375 C 5.878906 -9.679688 6.898438 -10.503906 7.921875 -11.328125 C 8.953125 -12.160156 9.929688 -13.046875 10.859375 -13.984375 C 10.972656 -14.085938 11.085938 -14.179688 11.203125 -14.265625 C 11.328125 -14.359375 11.429688 -14.445312 11.515625 -14.53125 C 11.660156 -14.675781 11.800781 -14.785156 11.9375 -14.859375 C 12.0625 -14.921875 12.191406 -14.953125 12.328125 -14.953125 C 12.472656 -14.953125 12.59375 -14.910156 12.6875 -14.828125 C 12.851562 -14.648438 12.9375 -14.472656 12.9375 -14.296875 C 12.9375 -14.148438 12.90625 -13.992188 12.84375 -13.828125 C 12.78125 -13.671875 12.71875 -13.515625 12.65625 -13.359375 L 11.84375 -11.671875 C 11.164062 -10.242188 10.457031 -8.828125 9.71875 -7.421875 C 8.988281 -6.015625 8.28125 -4.609375 7.59375 -3.203125 C 7.519531 -3.117188 7.457031 -3.015625 7.40625 -2.890625 C 7.351562 -2.773438 7.304688 -2.664062 7.265625 -2.5625 L 7.359375 -2.46875 C 7.472656 -2.53125 7.578125 -2.59375 7.671875 -2.65625 C 7.765625 -2.71875 7.867188 -2.785156 7.984375 -2.859375 C 9.492188 -3.722656 11.007812 -4.570312 12.53125 -5.40625 C 14.0625 -6.238281 15.59375 -7.070312 17.125 -7.90625 C 17.300781 -8.019531 17.484375 -8.113281 17.671875 -8.1875 C 17.867188 -8.257812 18.066406 -8.34375 18.265625 -8.4375 C 18.429688 -8.5 18.582031 -8.519531 18.71875 -8.5 C 18.90625 -8.457031 19.035156 -8.347656 19.109375 -8.171875 L 19.109375 -8.078125 C 19.109375 -7.921875 19.039062 -7.789062 18.90625 -7.6875 L 18.578125 -7.484375 C 18.273438 -7.359375 17.972656 -7.226562 17.671875 -7.09375 C 17.367188 -6.96875 17.066406 -6.832031 16.765625 -6.6875 C 15.078125 -5.84375 13.414062 -4.960938 11.78125 -4.046875 C 10.15625 -3.140625 8.539062 -2.179688 6.9375 -1.171875 C 6.59375 -0.953125 6.320312 -0.648438 6.125 -0.265625 C 5.21875 1.554688 4.3125 3.363281 3.40625 5.15625 C 2.5 6.945312 1.554688 8.742188 0.578125 10.546875 C -1.015625 13.484375 -2.71875 16.332031 -4.53125 19.09375 C -6.351562 21.863281 -8.332031 24.535156 -10.46875 27.109375 C -12.53125 29.578125 -14.695312 31.9375 -16.96875 34.1875 C -17.632812 34.832031 -18.3125 35.457031 -19 36.0625 C -19.695312 36.664062 -20.421875 37.226562 -21.171875 37.75 C -21.472656 37.96875 -21.785156 38.164062 -22.109375 38.34375 C -22.441406 38.53125 -22.769531 38.722656 -23.09375 38.921875 C -23.3125 39.046875 -23.546875 39.148438 -23.796875 39.234375 C -24.054688 39.328125 -24.316406 39.394531 -24.578125 39.4375 C -24.671875 39.457031 -24.753906 39.46875 -24.828125 39.46875 C -24.898438 39.46875 -24.984375 39.46875 -25.078125 39.46875 Z M -25.03125 38.5 C -24.644531 38.5 -24.265625 38.421875 -23.890625 38.265625 C -23.523438 38.117188 -23.171875 37.945312 -22.828125 37.75 C -22.265625 37.425781 -21.726562 37.078125 -21.21875 36.703125 C -20.71875 36.335938 -20.226562 35.953125 -19.75 35.546875 C -18.625 34.597656 -17.550781 33.613281 -16.53125 32.59375 C -15.519531 31.582031 -14.539062 30.535156 -13.59375 29.453125 C -11.34375 26.921875 -9.242188 24.289062 -7.296875 21.5625 C -5.347656 18.84375 -3.53125 16.015625 -1.84375 13.078125 C -0.695312 11.054688 0.398438 9.015625 1.453125 6.953125 C 2.515625 4.890625 3.566406 2.820312 4.609375 0.75 L 4.703125 0.453125 C 4.703125 0.429688 4.679688 0.398438 4.640625 0.359375 L 4.25 0.609375 C 2.90625 1.523438 1.582031 2.472656 0.28125 3.453125 C -1.007812 4.441406 -2.28125 5.441406 -3.53125 6.453125 C -5.15625 7.773438 -6.722656 9.15625 -8.234375 10.59375 C -9.753906 12.03125 -11.238281 13.503906 -12.6875 15.015625 C -13.894531 16.296875 -15.082031 17.601562 -16.25 18.9375 C -17.414062 20.28125 -18.539062 21.65625 -19.625 23.0625 C -20.488281 24.207031 -21.304688 25.390625 -22.078125 26.609375 C -22.859375 27.828125 -23.585938 29.085938 -24.265625 30.390625 C -24.628906 31.117188 -24.960938 31.859375 -25.265625 32.609375 C -25.566406 33.359375 -25.804688 34.144531 -25.984375 34.96875 C -26.046875 35.25 -26.097656 35.53125 -26.140625 35.8125 C -26.179688 36.09375 -26.203125 36.382812 -26.203125 36.6875 C -26.203125 37.894531 -25.8125 38.5 -25.03125 38.5 Z M -25.03125 38.5 "/></g></g></g></g></g><g transform="matrix(1,0,0,1,63,-0.000000000000008916)"><g clip-path="url(#964fe727d5)"><g style="fill:#000000;fill-opacity:1;"><g transform="translate(1.746326, 44.308839)"><path style="stroke:none" d="M 26.375 -34.53125 C 26.375 -34.53125 26.375 -34.507812 26.375 -34.46875 C 26.570312 -34.050781 26.460938 -33.703125 26.046875 -33.421875 C 25.640625 -33.140625 25.273438 -32.984375 24.953125 -32.953125 L 32.125 -33.59375 C 31.726562 -33.5625 31.269531 -33.773438 30.75 -34.234375 C 28.875 -35.960938 26.734375 -37.269531 24.328125 -38.15625 C 21.921875 -39.039062 19.394531 -39.351562 16.75 -39.09375 C 14.195312 -38.863281 11.847656 -38.132812 9.703125 -36.90625 C 7.554688 -35.675781 5.722656 -34.09375 4.203125 -32.15625 C 2.679688 -30.226562 1.550781 -28.035156 0.8125 -25.578125 C 0.0703125 -23.128906 -0.164062 -20.5625 0.09375 -17.875 C 0.351562 -15.1875 1.066406 -12.703125 2.234375 -10.421875 C 3.398438 -8.148438 4.914062 -6.195312 6.78125 -4.5625 C 8.644531 -2.925781 10.738281 -1.710938 13.0625 -0.921875 C 15.382812 -0.140625 17.820312 0.132812 20.375 -0.09375 C 22.800781 -0.320312 25.003906 -1.015625 26.984375 -2.171875 C 28.960938 -3.335938 30.445312 -4.722656 31.4375 -6.328125 L 30.6875 -6.328125 C 30 -5.222656 29.066406 -4.257812 27.890625 -3.4375 C 26.710938 -2.613281 25.453125 -1.957031 24.109375 -1.46875 C 22.765625 -0.976562 21.503906 -0.671875 20.328125 -0.546875 C 18.492188 -0.378906 16.71875 -0.710938 15 -1.546875 C 13.28125 -2.378906 11.722656 -3.601562 10.328125 -5.21875 C 8.941406 -6.84375 7.796875 -8.773438 6.890625 -11.015625 C 5.992188 -13.265625 5.414062 -15.695312 5.15625 -18.3125 C 4.925781 -20.9375 5.046875 -23.441406 5.515625 -25.828125 C 5.992188 -28.222656 6.765625 -30.351562 7.828125 -32.21875 C 8.890625 -34.082031 10.179688 -35.578125 11.703125 -36.703125 C 13.234375 -37.835938 14.929688 -38.46875 16.796875 -38.59375 C 18.296875 -38.695312 19.703125 -38.566406 21.015625 -38.203125 C 22.328125 -37.847656 23.457031 -37.347656 24.40625 -36.703125 C 25.351562 -36.066406 26.007812 -35.34375 26.375 -34.53125 Z M 26.375 -34.53125 "/></g></g><g style="fill:#000000;fill-opacity:1;"><g transform="translate(35.585829, 44.308839)"><path style="stroke:none" d="M 18.609375 -39.1875 C 16.054688 -39.1875 13.65625 -38.675781 11.40625 -37.65625 C 9.164062 -36.644531 7.195312 -35.238281 5.5 -33.4375 C 3.800781 -31.644531 2.46875 -29.566406 1.5 -27.203125 C 0.53125 -24.847656 0.046875 -22.3125 0.046875 -19.59375 C 0.046875 -16.90625 0.53125 -14.375 1.5 -12 C 2.46875 -9.632812 3.800781 -7.550781 5.5 -5.75 C 7.195312 -3.945312 9.164062 -2.535156 11.40625 -1.515625 C 13.65625 -0.503906 16.054688 0 18.609375 0 C 21.160156 0 23.554688 -0.503906 25.796875 -1.515625 C 28.046875 -2.535156 30.015625 -3.945312 31.703125 -5.75 C 33.390625 -7.550781 34.710938 -9.632812 35.671875 -12 C 36.640625 -14.375 37.125 -16.90625 37.125 -19.59375 C 37.125 -22.3125 36.640625 -24.847656 35.671875 -27.203125 C 34.710938 -29.566406 33.390625 -31.644531 31.703125 -33.4375 C 30.015625 -35.238281 28.046875 -36.644531 25.796875 -37.65625 C 23.554688 -38.675781 21.160156 -39.1875 18.609375 -39.1875 Z M 18.609375 -38.65625 C 20.472656 -38.65625 22.21875 -38.160156 23.84375 -37.171875 C 25.46875 -36.191406 26.890625 -34.828125 28.109375 -33.078125 C 29.335938 -31.328125 30.296875 -29.296875 30.984375 -26.984375 C 31.671875 -24.671875 32.015625 -22.191406 32.015625 -19.546875 C 32.015625 -16.921875 31.671875 -14.453125 30.984375 -12.140625 C 30.296875 -9.835938 29.335938 -7.8125 28.109375 -6.0625 C 26.890625 -4.3125 25.46875 -2.941406 23.84375 -1.953125 C 22.21875 -0.972656 20.472656 -0.484375 18.609375 -0.484375 C 16.742188 -0.484375 15 -0.972656 13.375 -1.953125 C 11.757812 -2.941406 10.328125 -4.3125 9.078125 -6.0625 C 7.835938 -7.8125 6.875 -9.835938 6.1875 -12.140625 C 5.5 -14.453125 5.15625 -16.921875 5.15625 -19.546875 C 5.15625 -22.191406 5.5 -24.671875 6.1875 -26.984375 C 6.875 -29.296875 7.835938 -31.328125 9.078125 -33.078125 C 10.328125 -34.828125 11.757812 -36.191406 13.375 -37.171875 C 15 -38.160156 16.742188 -38.65625 18.609375 -38.65625 Z M 18.609375 -38.65625 "/></g></g><g style="fill:#000000;fill-opacity:1;"><g transform="translate(75.122552, 44.308839)"><path style="stroke:none" d="M 8.734375 0 C 8.242188 0 7.816406 -0.257812 7.453125 -0.78125 C 7.097656 -1.3125 6.921875 -1.984375 6.921875 -2.796875 L 6.921875 -14.640625 L 14.53125 -14.640625 C 15.351562 -14.140625 16.023438 -13.382812 16.546875 -12.375 L 21.21875 -2.609375 C 21.570312 -1.816406 21.675781 -1.191406 21.53125 -0.734375 C 21.382812 -0.273438 21.082031 -0.046875 20.625 -0.046875 L 29.375 -0.046875 C 28.84375 -0.046875 28.28125 -0.300781 27.6875 -0.8125 C 27.101562 -1.320312 26.613281 -1.984375 26.21875 -2.796875 L 21.703125 -12.171875 C 21.273438 -12.898438 20.921875 -13.492188 20.640625 -13.953125 C 20.367188 -14.410156 19.804688 -14.71875 18.953125 -14.875 C 21.242188 -15.238281 23.125 -15.957031 24.59375 -17.03125 C 26.070312 -18.113281 27.171875 -19.457031 27.890625 -21.0625 C 28.609375 -22.664062 28.96875 -24.40625 28.96875 -26.28125 C 29.007812 -28.632812 28.601562 -30.785156 27.75 -32.734375 C 26.894531 -34.679688 25.515625 -36.234375 23.609375 -37.390625 C 21.710938 -38.554688 19.160156 -39.140625 15.953125 -39.140625 L 0 -39.140625 C 0.488281 -39.140625 0.90625 -38.898438 1.25 -38.421875 C 1.59375 -37.953125 1.78125 -37.34375 1.8125 -36.59375 L 1.8125 -2.546875 C 1.78125 -1.796875 1.59375 -1.179688 1.25 -0.703125 C 0.90625 -0.234375 0.488281 0 0 0 Z M 11.6875 -38.703125 C 13.84375 -38.703125 15.632812 -38.429688 17.0625 -37.890625 C 18.488281 -37.347656 19.632812 -36.632812 20.5 -35.75 C 21.363281 -34.863281 22.015625 -33.921875 22.453125 -32.921875 C 22.898438 -31.929688 23.195312 -30.957031 23.34375 -30 C 23.5 -29.050781 23.566406 -28.234375 23.546875 -27.546875 C 23.523438 -26.859375 23.515625 -26.414062 23.515625 -26.21875 C 23.515625 -25.863281 23.484375 -25.257812 23.421875 -24.40625 C 23.359375 -23.550781 23.15625 -22.597656 22.8125 -21.546875 C 22.46875 -20.503906 21.894531 -19.5 21.09375 -18.53125 C 20.289062 -17.570312 19.164062 -16.765625 17.71875 -16.109375 C 16.28125 -15.453125 14.429688 -15.109375 12.171875 -15.078125 L 6.921875 -15.078125 L 6.921875 -36.390625 C 6.921875 -37.398438 7.179688 -38.171875 7.703125 -38.703125 Z M 11.6875 -38.703125 "/></g></g><g style="fill:#000000;fill-opacity:1;"><g transform="translate(106.555473, 44.308839)"><path style="stroke:none" d="M 27.0625 -39.140625 L 0 -39.140625 C 0.457031 -39.140625 0.863281 -38.898438 1.21875 -38.421875 C 1.582031 -37.953125 1.78125 -37.34375 1.8125 -36.59375 L 1.8125 -2.546875 C 1.78125 -1.796875 1.582031 -1.179688 1.21875 -0.703125 C 0.863281 -0.234375 0.457031 0 0 0 L 27.109375 0 L 27.109375 -5.453125 C 27.109375 -5.453125 27.039062 -5.238281 26.90625 -4.8125 C 26.78125 -4.382812 26.445312 -3.875 25.90625 -3.28125 C 25.363281 -2.695312 24.503906 -2.140625 23.328125 -1.609375 C 22.148438 -1.085938 20.492188 -0.710938 18.359375 -0.484375 L 7.65625 -0.484375 C 7.425781 -0.710938 7.238281 -1.023438 7.09375 -1.421875 C 6.945312 -1.816406 6.875 -2.257812 6.875 -2.75 L 6.875 -19.59375 L 12.421875 -19.59375 C 13.765625 -19.363281 14.742188 -19.039062 15.359375 -18.625 C 15.984375 -18.21875 16.382812 -17.851562 16.5625 -17.53125 C 16.75 -17.207031 16.84375 -17.046875 16.84375 -17.046875 L 16.84375 -22.59375 C 16.84375 -22.59375 16.75 -22.425781 16.5625 -22.09375 C 16.382812 -21.769531 15.984375 -21.398438 15.359375 -20.984375 C 14.742188 -20.578125 13.765625 -20.257812 12.421875 -20.03125 L 6.875 -20.03125 L 6.875 -36.34375 C 6.875 -37.351562 7.148438 -38.140625 7.703125 -38.703125 L 18.3125 -38.703125 C 20.445312 -38.472656 22.109375 -38.09375 23.296875 -37.5625 C 24.492188 -37.039062 25.363281 -36.484375 25.90625 -35.890625 C 26.445312 -35.304688 26.78125 -34.800781 26.90625 -34.375 C 27.039062 -33.945312 27.109375 -33.734375 27.109375 -33.734375 L 27.109375 -39.140625 Z M 27.0625 -39.140625 "/></g></g><g style="fill:#000000;fill-opacity:1;"><g transform="translate(136.171169, 44.308839)"><path style="stroke:none" d="M 9.140625 -39.09375 L 0.046875 -39.09375 C 0.535156 -39.09375 0.957031 -38.835938 1.3125 -38.328125 C 1.675781 -37.816406 1.859375 -37.15625 1.859375 -36.34375 L 1.859375 -2.75 C 1.859375 -1.925781 1.675781 -1.253906 1.3125 -0.734375 C 0.957031 -0.210938 0.519531 0.046875 0 0.046875 L 4.859375 0.046875 C 4.367188 0.046875 3.953125 -0.1875 3.609375 -0.65625 C 3.265625 -1.132812 3.078125 -1.75 3.046875 -2.5 L 3.046875 -36.53125 C 3.046875 -36.53125 3.046875 -36.550781 3.046875 -36.59375 L 3.046875 -36.53125 L 15.125 0.046875 L 16.890625 0 L 28.625 -36.390625 L 28.625 -2.546875 C 28.59375 -1.765625 28.394531 -1.144531 28.03125 -0.6875 C 27.675781 -0.226562 27.269531 0 26.8125 0 L 35.5625 0 C 35.03125 0 34.582031 -0.25 34.21875 -0.75 C 33.863281 -1.257812 33.6875 -1.925781 33.6875 -2.75 L 33.6875 -36.34375 C 33.6875 -37.195312 33.863281 -37.867188 34.21875 -38.359375 C 34.582031 -38.847656 35.03125 -39.09375 35.5625 -39.09375 L 26.46875 -39.09375 C 26.988281 -39.09375 27.347656 -38.835938 27.546875 -38.328125 C 27.742188 -37.816406 27.710938 -37.15625 27.453125 -36.34375 L 17.921875 -6.828125 L 8.203125 -36.34375 C 7.941406 -37.195312 7.898438 -37.867188 8.078125 -38.359375 C 8.253906 -38.847656 8.609375 -39.09375 9.140625 -39.09375 Z M 9.140625 -39.09375 "/></g></g><g style="fill:#000000;fill-opacity:1;"><g transform="translate(174.23448, 44.308839)"><path style="stroke:none" d="M 0 -39.140625 C 0.457031 -39.140625 0.863281 -38.898438 1.21875 -38.421875 C 1.582031 -37.953125 1.78125 -37.34375 1.8125 -36.59375 L 1.8125 -2.546875 C 1.78125 -1.796875 1.582031 -1.179688 1.21875 -0.703125 C 0.863281 -0.234375 0.457031 0 0 0 L 8.6875 0 C 8.195312 0 7.769531 -0.25 7.40625 -0.75 C 7.050781 -1.257812 6.875 -1.925781 6.875 -2.75 L 6.875 -36.34375 C 6.875 -37.195312 7.050781 -37.875 7.40625 -38.375 C 7.769531 -38.882812 8.195312 -39.140625 8.6875 -39.140625 Z M 0 -39.140625 "/></g></g><g style="fill:#000000;fill-opacity:1;"><g transform="translate(185.432458, 44.308839)"><path style="stroke:none" d="M 8.796875 -39.140625 L 0.09375 -39.140625 C 0.125 -39.140625 0.140625 -39.140625 0.140625 -39.140625 C 0.140625 -39.140625 0.160156 -39.140625 0.203125 -39.140625 L 0.046875 -39.140625 C 0.535156 -39.140625 0.957031 -38.882812 1.3125 -38.375 C 1.675781 -37.875 1.859375 -37.210938 1.859375 -36.390625 L 1.8125 -2.796875 C 1.8125 -1.984375 1.640625 -1.3125 1.296875 -0.78125 C 0.953125 -0.257812 0.519531 0 0 0 L 4.8125 0 C 4.351562 0 3.953125 -0.234375 3.609375 -0.703125 C 3.265625 -1.179688 3.0625 -1.796875 3 -2.546875 L 3.046875 -36.59375 C 3.046875 -36.625 3.046875 -36.644531 3.046875 -36.65625 C 3.046875 -36.675781 3.046875 -36.703125 3.046875 -36.734375 C 3.046875 -36.703125 3.078125 -36.65625 3.140625 -36.59375 L 19.34375 -2.609375 C 19.707031 -1.816406 19.816406 -1.191406 19.671875 -0.734375 C 19.523438 -0.273438 19.222656 -0.046875 18.765625 -0.046875 L 27.453125 0 C 26.703125 0 26.226562 -0.257812 26.03125 -0.78125 C 25.832031 -1.3125 25.703125 -1.898438 25.640625 -2.546875 L 25.6875 -36.59375 C 25.71875 -37.34375 25.90625 -37.953125 26.25 -38.421875 C 26.59375 -38.898438 27.007812 -39.140625 27.5 -39.140625 L 22.6875 -39.140625 C 23.175781 -39.140625 23.597656 -38.882812 23.953125 -38.375 C 24.316406 -37.875 24.5 -37.210938 24.5 -36.390625 L 24.453125 -2.796875 C 24.453125 -2.765625 24.453125 -2.722656 24.453125 -2.671875 C 24.453125 -2.628906 24.453125 -2.570312 24.453125 -2.5 C 24.421875 -2.570312 24.394531 -2.628906 24.375 -2.671875 C 24.363281 -2.722656 24.34375 -2.765625 24.3125 -2.796875 L 8.296875 -36.390625 C 7.898438 -37.242188 7.757812 -37.914062 7.875 -38.40625 C 7.988281 -38.894531 8.296875 -39.140625 8.796875 -39.140625 Z M 8.796875 -39.140625 "/></g></g><g style="fill:#000000;fill-opacity:1;"><g transform="translate(215.39196, 44.308839)"><path style="stroke:none" d="M 10.5625 0 C 13.832031 0 16.585938 -0.441406 18.828125 -1.328125 C 21.078125 -2.210938 22.894531 -3.390625 24.28125 -4.859375 C 25.675781 -6.335938 26.738281 -7.953125 27.46875 -9.703125 C 28.207031 -11.453125 28.695312 -13.203125 28.9375 -14.953125 C 29.1875 -16.703125 29.3125 -18.28125 29.3125 -19.6875 C 29.3125 -20.96875 29.171875 -22.453125 28.890625 -24.140625 C 28.617188 -25.828125 28.101562 -27.546875 27.34375 -29.296875 C 26.59375 -31.046875 25.519531 -32.664062 24.125 -34.15625 C 22.738281 -35.644531 20.941406 -36.847656 18.734375 -37.765625 C 16.523438 -38.679688 13.816406 -39.140625 10.609375 -39.140625 L 0 -39.140625 C 0.457031 -39.140625 0.863281 -38.898438 1.21875 -38.421875 C 1.582031 -37.953125 1.78125 -37.34375 1.8125 -36.59375 L 1.8125 -2.546875 C 1.78125 -1.796875 1.582031 -1.179688 1.21875 -0.703125 C 0.863281 -0.234375 0.457031 0 0 0 Z M 7.65625 -38.703125 L 8.109375 -38.703125 C 10.984375 -38.671875 13.367188 -38.234375 15.265625 -37.390625 C 17.171875 -36.554688 18.703125 -35.46875 19.859375 -34.125 C 21.023438 -32.789062 21.894531 -31.351562 22.46875 -29.8125 C 23.039062 -28.269531 23.425781 -26.785156 23.625 -25.359375 C 23.820312 -23.941406 23.921875 -22.71875 23.921875 -21.6875 C 23.921875 -20.65625 23.921875 -19.988281 23.921875 -19.6875 C 23.921875 -19.425781 23.898438 -18.785156 23.859375 -17.765625 C 23.828125 -16.753906 23.6875 -15.53125 23.4375 -14.09375 C 23.195312 -12.65625 22.757812 -11.164062 22.125 -9.625 C 21.488281 -8.082031 20.570312 -6.625 19.375 -5.25 C 18.175781 -3.875 16.628906 -2.753906 14.734375 -1.890625 C 12.835938 -1.023438 10.476562 -0.554688 7.65625 -0.484375 C 7.425781 -0.710938 7.238281 -1.023438 7.09375 -1.421875 C 6.945312 -1.816406 6.875 -2.273438 6.875 -2.796875 L 6.875 -36.390625 C 6.875 -36.878906 6.945312 -37.328125 7.09375 -37.734375 C 7.238281 -38.148438 7.425781 -38.472656 7.65625 -38.703125 Z M 7.65625 -38.703125 "/></g></g></g></g></g></svg>