<svg xmlns="http://www.w3.org/2000/svg" xmlns:xlink="http://www.w3.org/1999/xlink" width="523" zoomAndPan="magnify" viewBox="0 0 392.25 149.249994" height="199" preserveAspectRatio="xMidYMid meet" version="1.0"><defs><g/><clipPath id="c3b8bd2f3b"><rect x="0" width="297" y="0" height="88"/></clipPath><clipPath id="abf3a46d2f"><rect x="0" width="119" y="0" height="90"/></clipPath></defs><g transform="matrix(1, 0, 0, 1, 34, 45)"><g clip-path="url(#c3b8bd2f3b)"><g fill="#000000" fill-opacity="1"><g transform="translate(0.627151, 70.860217)"><g><path d="M 24.328125 -47.34375 C 27.210938 -47.34375 29.582031 -46.914062 31.4375 -46.0625 C 33.300781 -45.21875 34.953125 -44.222656 36.390625 -43.078125 C 37.265625 -42.421875 37.929688 -42.34375 38.390625 -42.84375 C 38.847656 -43.351562 39.164062 -44.546875 39.34375 -46.421875 L 40.859375 -46.421875 C 40.765625 -44.804688 40.695312 -42.835938 40.65625 -40.515625 C 40.613281 -38.203125 40.59375 -35.144531 40.59375 -31.34375 L 39.078125 -31.34375 C 38.773438 -33.226562 38.492188 -34.726562 38.234375 -35.84375 C 37.972656 -36.957031 37.65625 -37.90625 37.28125 -38.6875 C 36.90625 -39.476562 36.414062 -40.265625 35.8125 -41.046875 C 34.445312 -42.835938 32.738281 -44.140625 30.6875 -44.953125 C 28.632812 -45.765625 26.472656 -46.171875 24.203125 -46.171875 C 22.054688 -46.171875 20.117188 -45.632812 18.390625 -44.5625 C 16.660156 -43.488281 15.171875 -41.945312 13.921875 -39.9375 C 12.679688 -37.925781 11.722656 -35.5 11.046875 -32.65625 C 10.367188 -29.8125 10.03125 -26.617188 10.03125 -23.078125 C 10.03125 -19.410156 10.398438 -16.164062 11.140625 -13.34375 C 11.890625 -10.519531 12.929688 -8.144531 14.265625 -6.21875 C 15.597656 -4.300781 17.171875 -2.847656 18.984375 -1.859375 C 20.796875 -0.878906 22.753906 -0.390625 24.859375 -0.390625 C 26.828125 -0.390625 28.878906 -0.78125 31.015625 -1.5625 C 33.160156 -2.351562 34.84375 -3.625 36.0625 -5.375 C 37.03125 -6.644531 37.695312 -8.019531 38.0625 -9.5 C 38.4375 -10.988281 38.773438 -13.066406 39.078125 -15.734375 L 40.59375 -15.734375 C 40.59375 -11.753906 40.613281 -8.550781 40.65625 -6.125 C 40.695312 -3.695312 40.765625 -1.65625 40.859375 0 L 39.34375 0 C 39.164062 -1.875 38.867188 -3.050781 38.453125 -3.53125 C 38.046875 -4.019531 37.359375 -3.957031 36.390625 -3.34375 C 34.773438 -2.207031 33.0625 -1.210938 31.25 -0.359375 C 29.4375 0.492188 27.109375 0.921875 24.265625 0.921875 C 20.109375 0.921875 16.46875 -0.015625 13.34375 -1.890625 C 10.21875 -3.773438 7.789062 -6.488281 6.0625 -10.03125 C 4.332031 -13.570312 3.46875 -17.835938 3.46875 -22.828125 C 3.46875 -27.722656 4.363281 -32.003906 6.15625 -35.671875 C 7.957031 -39.347656 10.421875 -42.210938 13.546875 -44.265625 C 16.671875 -46.316406 20.265625 -47.34375 24.328125 -47.34375 Z M 24.328125 -47.34375 "/></g></g></g><g fill="#000000" fill-opacity="1"><g transform="translate(45.745815, 70.860217)"><g><path d="M 17.96875 -34.6875 C 20.769531 -34.6875 23.285156 -34.070312 25.515625 -32.84375 C 27.742188 -31.625 29.523438 -29.703125 30.859375 -27.078125 C 32.191406 -24.460938 32.859375 -21.054688 32.859375 -16.859375 C 32.859375 -12.660156 32.191406 -9.257812 30.859375 -6.65625 C 29.523438 -4.050781 27.742188 -2.132812 25.515625 -0.90625 C 23.285156 0.3125 20.769531 0.921875 17.96875 0.921875 C 15.21875 0.921875 12.710938 0.3125 10.453125 -0.90625 C 8.203125 -2.132812 6.410156 -4.050781 5.078125 -6.65625 C 3.742188 -9.257812 3.078125 -12.660156 3.078125 -16.859375 C 3.078125 -21.054688 3.742188 -24.460938 5.078125 -27.078125 C 6.410156 -29.703125 8.203125 -31.625 10.453125 -32.84375 C 12.710938 -34.070312 15.21875 -34.6875 17.96875 -34.6875 Z M 17.96875 -33.375 C 15.476562 -33.375 13.429688 -32.082031 11.828125 -29.5 C 10.234375 -26.925781 9.4375 -22.710938 9.4375 -16.859375 C 9.4375 -10.992188 10.234375 -6.78125 11.828125 -4.21875 C 13.429688 -1.664062 15.476562 -0.390625 17.96875 -0.390625 C 20.457031 -0.390625 22.5 -1.664062 24.09375 -4.21875 C 25.695312 -6.78125 26.5 -10.992188 26.5 -16.859375 C 26.5 -22.710938 25.695312 -26.925781 24.09375 -29.5 C 22.5 -32.082031 20.457031 -33.375 17.96875 -33.375 Z M 17.96875 -33.375 "/></g></g></g><g fill="#000000" fill-opacity="1"><g transform="translate(81.683357, 70.860217)"><g><path d="M 22.296875 -34.6875 C 23.472656 -34.6875 24.507812 -34.445312 25.40625 -33.96875 C 26.300781 -33.488281 27 -32.863281 27.5 -32.09375 C 28.007812 -31.332031 28.265625 -30.472656 28.265625 -29.515625 C 28.265625 -28.421875 27.925781 -27.457031 27.25 -26.625 C 26.570312 -25.789062 25.664062 -25.375 24.53125 -25.375 C 23.613281 -25.375 22.800781 -25.671875 22.09375 -26.265625 C 21.394531 -26.859375 21.046875 -27.695312 21.046875 -28.78125 C 21.046875 -29.613281 21.273438 -30.328125 21.734375 -30.921875 C 22.191406 -31.515625 22.707031 -31.984375 23.28125 -32.328125 C 22.976562 -32.765625 22.519531 -32.984375 21.90625 -32.984375 C 20.550781 -32.984375 19.300781 -32.578125 18.15625 -31.765625 C 17.019531 -30.960938 16.054688 -29.925781 15.265625 -28.65625 C 14.484375 -27.382812 13.875 -26.039062 13.4375 -24.625 C 13 -23.207031 12.78125 -21.882812 12.78125 -20.65625 L 12.78125 -6.75 C 12.78125 -4.613281 13.40625 -3.179688 14.65625 -2.453125 C 15.90625 -1.734375 17.597656 -1.375 19.734375 -1.375 L 19.734375 0 C 18.734375 -0.0390625 17.3125 -0.09375 15.46875 -0.15625 C 13.632812 -0.226562 11.691406 -0.265625 9.640625 -0.265625 C 8.148438 -0.265625 6.671875 -0.226562 5.203125 -0.15625 C 3.742188 -0.09375 2.644531 -0.0390625 1.90625 0 L 1.90625 -1.375 C 3.695312 -1.375 4.972656 -1.703125 5.734375 -2.359375 C 6.503906 -3.015625 6.890625 -4.257812 6.890625 -6.09375 L 6.890625 -26.625 C 6.890625 -28.59375 6.535156 -30.046875 5.828125 -30.984375 C 5.128906 -31.921875 3.820312 -32.390625 1.90625 -32.390625 L 1.90625 -33.765625 C 3.300781 -33.640625 4.65625 -33.578125 5.96875 -33.578125 C 7.238281 -33.578125 8.453125 -33.648438 9.609375 -33.796875 C 10.765625 -33.953125 11.820312 -34.1875 12.78125 -34.5 L 12.78125 -26.296875 C 13.269531 -27.566406 13.960938 -28.84375 14.859375 -30.125 C 15.753906 -31.414062 16.832031 -32.5 18.09375 -33.375 C 19.363281 -34.25 20.765625 -34.6875 22.296875 -34.6875 Z M 22.296875 -34.6875 "/></g></g></g><g fill="#000000" fill-opacity="1"><g transform="translate(109.554625, 70.860217)"><g><path d="M 17.84375 -34.6875 C 21.6875 -34.6875 24.6875 -33.515625 26.84375 -31.171875 C 29.007812 -28.835938 30.09375 -25.203125 30.09375 -20.265625 L 6.953125 -20.265625 L 6.890625 -21.515625 L 23.8125 -21.515625 C 23.894531 -23.648438 23.71875 -25.625 23.28125 -27.4375 C 22.84375 -29.257812 22.148438 -30.710938 21.203125 -31.796875 C 20.265625 -32.890625 19.054688 -33.4375 17.578125 -33.4375 C 15.566406 -33.4375 13.785156 -32.429688 12.234375 -30.421875 C 10.679688 -28.410156 9.75 -25.222656 9.4375 -20.859375 L 9.640625 -20.59375 C 9.554688 -19.9375 9.488281 -19.210938 9.4375 -18.421875 C 9.394531 -17.640625 9.375 -16.851562 9.375 -16.0625 C 9.375 -13.09375 9.851562 -10.535156 10.8125 -8.390625 C 11.78125 -6.253906 13.039062 -4.628906 14.59375 -3.515625 C 16.144531 -2.398438 17.75 -1.84375 19.40625 -1.84375 C 20.71875 -1.84375 21.960938 -2.046875 23.140625 -2.453125 C 24.328125 -2.867188 25.421875 -3.554688 26.421875 -4.515625 C 27.429688 -5.484375 28.304688 -6.773438 29.046875 -8.390625 L 30.359375 -7.875 C 29.878906 -6.425781 29.09375 -5.023438 28 -3.671875 C 26.90625 -2.316406 25.523438 -1.210938 23.859375 -0.359375 C 22.203125 0.492188 20.28125 0.921875 18.09375 0.921875 C 14.945312 0.921875 12.25 0.203125 10 -1.234375 C 7.75 -2.679688 6.019531 -4.679688 4.8125 -7.234375 C 3.613281 -9.796875 3.015625 -12.738281 3.015625 -16.0625 C 3.015625 -19.914062 3.625 -23.226562 4.84375 -26 C 6.070312 -28.78125 7.800781 -30.921875 10.03125 -32.421875 C 12.257812 -33.929688 14.863281 -34.6875 17.84375 -34.6875 Z M 17.84375 -34.6875 "/></g></g></g><g fill="#000000" fill-opacity="1"><g transform="translate(142.278773, 70.860217)"><g><path d="M 54.359375 -46.421875 L 54.359375 -45.125 C 52.878906 -45.070312 51.753906 -44.90625 50.984375 -44.625 C 50.222656 -44.34375 49.707031 -43.816406 49.4375 -43.046875 C 49.175781 -42.285156 49.046875 -41.097656 49.046875 -39.484375 L 49.046875 -6.953125 C 49.046875 -5.378906 49.175781 -4.195312 49.4375 -3.40625 C 49.707031 -2.625 50.222656 -2.097656 50.984375 -1.828125 C 51.753906 -1.566406 52.878906 -1.394531 54.359375 -1.3125 L 54.359375 0 C 53.359375 -0.0820312 52.101562 -0.132812 50.59375 -0.15625 C 49.082031 -0.1875 47.5625 -0.203125 46.03125 -0.203125 C 44.332031 -0.203125 42.738281 -0.1875 41.25 -0.15625 C 39.757812 -0.132812 38.554688 -0.0820312 37.640625 0 L 37.640625 -1.3125 C 39.128906 -1.394531 40.253906 -1.566406 41.015625 -1.828125 C 41.785156 -2.097656 42.300781 -2.625 42.5625 -3.40625 C 42.820312 -4.195312 42.953125 -5.378906 42.953125 -6.953125 L 42.953125 -43.015625 L 43.21875 -42.828125 L 27.15625 0.328125 L 26.09375 0.328125 L 9.578125 -42.234375 L 9.578125 -7.609375 C 9.578125 -6.035156 9.71875 -4.800781 10 -3.90625 C 10.28125 -3.007812 10.847656 -2.375 11.703125 -2 C 12.554688 -1.625 13.835938 -1.394531 15.546875 -1.3125 L 15.546875 0 C 14.753906 -0.0820312 13.722656 -0.132812 12.453125 -0.15625 C 11.191406 -0.1875 9.992188 -0.203125 8.859375 -0.203125 C 7.765625 -0.203125 6.660156 -0.1875 5.546875 -0.15625 C 4.429688 -0.132812 3.5 -0.0820312 2.75 0 L 2.75 -1.3125 C 4.238281 -1.394531 5.363281 -1.625 6.125 -2 C 6.894531 -2.375 7.410156 -3.007812 7.671875 -3.90625 C 7.929688 -4.800781 8.0625 -6.035156 8.0625 -7.609375 L 8.0625 -39.484375 C 8.0625 -41.097656 7.929688 -42.285156 7.671875 -43.046875 C 7.410156 -43.816406 6.894531 -44.34375 6.125 -44.625 C 5.363281 -44.90625 4.238281 -45.070312 2.75 -45.125 L 2.75 -46.421875 C 3.5 -46.378906 4.429688 -46.335938 5.546875 -46.296875 C 6.660156 -46.253906 7.765625 -46.234375 8.859375 -46.234375 C 9.816406 -46.234375 10.804688 -46.253906 11.828125 -46.296875 C 12.859375 -46.335938 13.722656 -46.378906 14.421875 -46.421875 L 29.3125 -7.21875 L 28.203125 -6.6875 L 42.953125 -46.234375 C 43.472656 -46.234375 43.984375 -46.234375 44.484375 -46.234375 C 44.992188 -46.234375 45.507812 -46.234375 46.03125 -46.234375 C 47.5625 -46.234375 49.082031 -46.253906 50.59375 -46.296875 C 52.101562 -46.335938 53.359375 -46.378906 54.359375 -46.421875 Z M 54.359375 -46.421875 "/></g></g></g><g fill="#000000" fill-opacity="1"><g transform="translate(199.398488, 70.860217)"><g><path d="M 9.390625 -50.171875 C 10.523438 -50.171875 11.503906 -49.753906 12.328125 -48.921875 C 13.160156 -48.085938 13.578125 -47.101562 13.578125 -45.96875 C 13.578125 -44.832031 13.160156 -43.847656 12.328125 -43.015625 C 11.503906 -42.179688 10.523438 -41.765625 9.390625 -41.765625 C 8.242188 -41.765625 7.253906 -42.179688 6.421875 -43.015625 C 5.597656 -43.847656 5.1875 -44.832031 5.1875 -45.96875 C 5.1875 -47.101562 5.597656 -48.085938 6.421875 -48.921875 C 7.253906 -49.753906 8.242188 -50.171875 9.390625 -50.171875 Z M 12.78125 -34.5 L 12.78125 -6.09375 C 12.78125 -4.257812 13.160156 -3.015625 13.921875 -2.359375 C 14.691406 -1.703125 15.972656 -1.375 17.765625 -1.375 L 17.765625 0 C 17.023438 -0.0390625 15.898438 -0.09375 14.390625 -0.15625 C 12.878906 -0.226562 11.363281 -0.265625 9.84375 -0.265625 C 8.351562 -0.265625 6.84375 -0.226562 5.3125 -0.15625 C 3.78125 -0.09375 2.644531 -0.0390625 1.90625 0 L 1.90625 -1.375 C 3.695312 -1.375 4.972656 -1.703125 5.734375 -2.359375 C 6.503906 -3.015625 6.890625 -4.257812 6.890625 -6.09375 L 6.890625 -26.625 C 6.890625 -28.59375 6.535156 -30.046875 5.828125 -30.984375 C 5.128906 -31.921875 3.820312 -32.390625 1.90625 -32.390625 L 1.90625 -33.765625 C 3.300781 -33.640625 4.65625 -33.578125 5.96875 -33.578125 C 7.238281 -33.578125 8.453125 -33.648438 9.609375 -33.796875 C 10.765625 -33.953125 11.820312 -34.1875 12.78125 -34.5 Z M 12.78125 -34.5 "/></g></g></g><g fill="#000000" fill-opacity="1"><g transform="translate(218.613265, 70.860217)"><g><path d="M 23.9375 -34.6875 C 25.59375 -34.6875 26.976562 -34.46875 28.09375 -34.03125 C 29.207031 -33.59375 30.140625 -32.984375 30.890625 -32.203125 C 31.722656 -31.328125 32.3125 -30.234375 32.65625 -28.921875 C 33.007812 -27.609375 33.1875 -25.835938 33.1875 -23.609375 L 33.1875 -6.09375 C 33.1875 -4.257812 33.566406 -3.015625 34.328125 -2.359375 C 35.097656 -1.703125 36.378906 -1.375 38.171875 -1.375 L 38.171875 0 C 37.421875 -0.0390625 36.28125 -0.09375 34.75 -0.15625 C 33.226562 -0.226562 31.742188 -0.265625 30.296875 -0.265625 C 28.859375 -0.265625 27.445312 -0.226562 26.0625 -0.15625 C 24.6875 -0.09375 23.648438 -0.0390625 22.953125 0 L 22.953125 -1.375 C 24.523438 -1.375 25.640625 -1.703125 26.296875 -2.359375 C 26.953125 -3.015625 27.28125 -4.257812 27.28125 -6.09375 L 27.28125 -25.046875 C 27.28125 -26.398438 27.171875 -27.644531 26.953125 -28.78125 C 26.734375 -29.925781 26.238281 -30.847656 25.46875 -31.546875 C 24.707031 -32.242188 23.539062 -32.59375 21.96875 -32.59375 C 20.132812 -32.59375 18.523438 -32.066406 17.140625 -31.015625 C 15.765625 -29.960938 14.691406 -28.53125 13.921875 -26.71875 C 13.160156 -24.90625 12.78125 -22.882812 12.78125 -20.65625 L 12.78125 -6.09375 C 12.78125 -4.257812 13.109375 -3.015625 13.765625 -2.359375 C 14.421875 -1.703125 15.535156 -1.375 17.109375 -1.375 L 17.109375 0 C 16.410156 -0.0390625 15.375 -0.09375 14 -0.15625 C 12.625 -0.226562 11.210938 -0.265625 9.765625 -0.265625 C 8.328125 -0.265625 6.84375 -0.226562 5.3125 -0.15625 C 3.78125 -0.09375 2.644531 -0.0390625 1.90625 0 L 1.90625 -1.375 C 3.695312 -1.375 4.972656 -1.703125 5.734375 -2.359375 C 6.503906 -3.015625 6.890625 -4.257812 6.890625 -6.09375 L 6.890625 -26.625 C 6.890625 -28.59375 6.535156 -30.046875 5.828125 -30.984375 C 5.128906 -31.921875 3.820312 -32.390625 1.90625 -32.390625 L 1.90625 -33.765625 C 3.300781 -33.640625 4.65625 -33.578125 5.96875 -33.578125 C 7.238281 -33.578125 8.453125 -33.648438 9.609375 -33.796875 C 10.765625 -33.953125 11.820312 -34.1875 12.78125 -34.5 L 12.78125 -26.75 C 13.925781 -29.726562 15.515625 -31.796875 17.546875 -32.953125 C 19.578125 -34.109375 21.707031 -34.6875 23.9375 -34.6875 Z M 23.9375 -34.6875 "/></g></g></g><g fill="#000000" fill-opacity="1"><g transform="translate(257.764201, 70.860217)"><g><path d="M 31.734375 -51.40625 L 31.734375 -7.140625 C 31.734375 -5.179688 32.09375 -3.726562 32.8125 -2.78125 C 33.539062 -1.84375 34.84375 -1.375 36.71875 -1.375 L 36.71875 0 C 35.363281 -0.132812 34.007812 -0.203125 32.65625 -0.203125 C 31.382812 -0.203125 30.171875 -0.132812 29.015625 0 C 27.859375 0.132812 26.800781 0.375 25.84375 0.71875 L 25.84375 -43.546875 C 25.84375 -45.515625 25.488281 -46.96875 24.78125 -47.90625 C 24.082031 -48.84375 22.773438 -49.3125 20.859375 -49.3125 L 20.859375 -50.6875 C 22.253906 -50.5625 23.609375 -50.5 24.921875 -50.5 C 26.191406 -50.5 27.40625 -50.570312 28.5625 -50.71875 C 29.71875 -50.875 30.773438 -51.101562 31.734375 -51.40625 Z M 17.96875 -34.6875 C 19.894531 -34.6875 21.695312 -34.226562 23.375 -33.3125 C 25.0625 -32.394531 26.1875 -30.820312 26.75 -28.59375 L 25.90625 -27.9375 C 25.289062 -29.769531 24.335938 -31.101562 23.046875 -31.9375 C 21.753906 -32.769531 20.238281 -33.1875 18.5 -33.1875 C 15.914062 -33.1875 13.757812 -31.851562 12.03125 -29.1875 C 10.300781 -26.519531 9.460938 -22.410156 9.515625 -16.859375 C 9.515625 -13.316406 9.851562 -10.375 10.53125 -8.03125 C 11.207031 -5.695312 12.210938 -3.945312 13.546875 -2.78125 C 14.878906 -1.625 16.503906 -1.046875 18.421875 -1.046875 C 20.265625 -1.046875 21.925781 -1.832031 23.40625 -3.40625 C 24.894531 -4.976562 25.789062 -7.296875 26.09375 -10.359375 L 26.890625 -9.4375 C 26.535156 -6.113281 25.472656 -3.554688 23.703125 -1.765625 C 21.929688 0.0234375 19.539062 0.921875 16.53125 0.921875 C 13.8125 0.921875 11.4375 0.265625 9.40625 -1.046875 C 7.375 -2.359375 5.820312 -4.328125 4.75 -6.953125 C 3.675781 -9.578125 3.140625 -12.878906 3.140625 -16.859375 C 3.140625 -20.835938 3.828125 -24.144531 5.203125 -26.78125 C 6.585938 -29.425781 8.40625 -31.40625 10.65625 -32.71875 C 12.90625 -34.03125 15.34375 -34.6875 17.96875 -34.6875 Z M 17.96875 -34.6875 "/></g></g></g></g></g><g transform="matrix(1, 0, 0, 1, 266, 5)"><g clip-path="url(#abf3a46d2f)"><g fill="#000000" fill-opacity="1"><g transform="translate(16.75233, 45.197278)"><g><path d="M 5.515625 -2.75 L 4.078125 -2.03125 L -1.453125 -13.140625 L -5.375 -11.1875 L -6 -12.453125 L 3.265625 -17.0625 L 3.890625 -15.796875 L -0.015625 -13.859375 Z M 5.515625 -2.75 "/></g></g></g><g fill="#000000" fill-opacity="1"><g transform="translate(27.682585, 39.708859)"><g><path d="M 12.265625 -1.84375 L 10.671875 -1.59375 L 9.703125 -8.03125 L 2.515625 -6.953125 L 3.484375 -0.515625 L 1.890625 -0.28125 L -0.15625 -13.953125 L 1.4375 -14.1875 L 2.3125 -8.375 L 9.5 -9.453125 L 8.625 -15.265625 L 10.21875 -15.515625 Z M 12.265625 -1.84375 "/></g></g></g><g fill="#000000" fill-opacity="1"><g transform="translate(43.30106, 37.877131)"><g><path d="M 9.484375 1.578125 L 1.875 0.3125 L 4.140625 -13.328125 L 11.75 -12.0625 L 11.515625 -10.65625 L 5.5 -11.65625 L 4.78125 -7.265625 L 10.4375 -6.328125 L 10.203125 -4.921875 L 4.546875 -5.859375 L 3.703125 -0.84375 L 9.71875 0.15625 Z M 9.484375 1.578125 "/></g></g></g><g fill="#000000" fill-opacity="1"><g transform="translate(55.495644, 40.058029)"><g><path d="M 5.6875 -3.609375 L 3.15625 1.546875 L 1.71875 0.84375 L 7.8125 -11.578125 L 11.203125 -9.921875 C 12.722656 -9.171875 13.703125 -8.320312 14.140625 -7.375 C 14.585938 -6.425781 14.523438 -5.367188 13.953125 -4.203125 C 13.148438 -2.566406 11.769531 -1.867188 9.8125 -2.109375 L 10.453125 5.125 L 8.75 4.296875 L 8.265625 -2.34375 Z M 6.296875 -4.859375 L 8.28125 -3.890625 C 9.289062 -3.390625 10.128906 -3.222656 10.796875 -3.390625 C 11.472656 -3.554688 12.007812 -4.050781 12.40625 -4.875 C 12.8125 -5.6875 12.863281 -6.394531 12.5625 -7 C 12.257812 -7.601562 11.566406 -8.164062 10.484375 -8.6875 L 8.625 -9.609375 Z M 6.296875 -4.859375 "/></g></g></g><g fill="#000000" fill-opacity="1"><g transform="translate(67.516859, 46.190409)"><g><path d="M 7.671875 7.3125 L 9.46875 2.9375 L 5.453125 -0.890625 L 1.171875 1.125 L 0 0 L 13.546875 -6.265625 L 14.53125 -5.328125 L 8.875 8.46875 Z M 10.09375 1.546875 L 11.875 -2.65625 C 12.113281 -3.195312 12.425781 -3.828125 12.8125 -4.546875 C 12.28125 -4.210938 11.671875 -3.867188 10.984375 -3.515625 L 6.84375 -1.546875 Z M 10.09375 1.546875 "/></g></g></g><g fill="#000000" fill-opacity="1"><g transform="translate(77.300829, 55.905277)"><g><path d="M 13.734375 4.578125 C 12.515625 5.253906 11.34375 5.359375 10.21875 4.890625 C 9.101562 4.421875 8.113281 3.410156 7.25 1.859375 L 6.453125 0.4375 L 1.703125 3.078125 L 0.921875 1.671875 L 13.015625 -5.03125 L 14.75 -1.90625 C 16.425781 1.113281 16.085938 3.273438 13.734375 4.578125 Z M 7.671875 -0.234375 L 8.375 1.015625 C 9.0625 2.265625 9.757812 3.054688 10.46875 3.390625 C 11.175781 3.722656 11.972656 3.644531 12.859375 3.15625 C 13.660156 2.707031 14.113281 2.113281 14.21875 1.375 C 14.320312 0.632812 14.066406 -0.285156 13.453125 -1.390625 L 12.578125 -2.953125 Z M 7.671875 -0.234375 "/></g></g></g><g fill="#000000" fill-opacity="1"><g transform="translate(83.485297, 67.648187)"><g><path d="M 7.9375 3.796875 L 15.46875 5.90625 L 15.84375 7.609375 L 6.578125 4.9375 L 1.34375 6.09375 L 1 4.5 L 6.15625 3.359375 L 13.5 -2.984375 L 13.875 -1.265625 Z M 7.9375 3.796875 "/></g></g></g></g></g></svg>